%TF.GenerationSoftware,KiCad,Pcbnew,8.0.8*%
%TF.CreationDate,2025-01-23T20:59:21-05:00*%
%TF.ProjectId,sweepv2.1,73776565-7076-4322-9e31-2e6b69636164,rev?*%
%TF.SameCoordinates,Original*%
%TF.FileFunction,Soldermask,Top*%
%TF.FilePolarity,Negative*%
%FSLAX46Y46*%
G04 Gerber Fmt 4.6, Leading zero omitted, Abs format (unit mm)*
G04 Created by KiCad (PCBNEW 8.0.8) date 2025-01-23 20:59:21*
%MOMM*%
%LPD*%
G01*
G04 APERTURE LIST*
%ADD10C,0.000000*%
%ADD11C,0.500000*%
%ADD12C,2.032000*%
%ADD13C,1.701800*%
%ADD14C,0.990600*%
%ADD15C,3.429000*%
%ADD16R,0.900000X1.700000*%
%ADD17C,4.400000*%
%ADD18C,1.397000*%
%ADD19C,1.000000*%
G04 APERTURE END LIST*
D10*
%TO.C,G\u002A\u002A\u002A*%
G36*
X179935708Y-78880645D02*
G01*
X179938776Y-78911062D01*
X179935708Y-78914819D01*
X179920471Y-78911301D01*
X179918621Y-78897732D01*
X179927999Y-78876635D01*
X179935708Y-78880645D01*
G37*
G36*
X184164770Y-83801735D02*
G01*
X184161252Y-83816972D01*
X184147683Y-83818822D01*
X184126586Y-83809444D01*
X184130596Y-83801735D01*
X184161013Y-83798667D01*
X184164770Y-83801735D01*
G37*
G36*
X179961920Y-78724725D02*
G01*
X179965906Y-78789730D01*
X179961920Y-78814432D01*
X179954491Y-78822409D01*
X179950446Y-78786968D01*
X179950198Y-78769578D01*
X179952871Y-78722948D01*
X179959524Y-78717453D01*
X179961920Y-78724725D01*
G37*
G36*
X179986376Y-78567022D02*
G01*
X179987644Y-78571429D01*
X179991397Y-78627260D01*
X179986695Y-78648321D01*
X179978281Y-78649173D01*
X179974844Y-78609049D01*
X179974879Y-78602979D01*
X179978575Y-78563227D01*
X179986376Y-78567022D01*
G37*
G36*
X183732018Y-80134605D02*
G01*
X183730560Y-80160309D01*
X183697934Y-80213973D01*
X183684585Y-80232978D01*
X183626942Y-80293273D01*
X183575466Y-80305666D01*
X183549275Y-80289973D01*
X183553340Y-80262760D01*
X183584906Y-80218917D01*
X183630472Y-80172580D01*
X183676537Y-80137887D01*
X183703941Y-80128004D01*
X183732018Y-80134605D01*
G37*
G36*
X184045084Y-83866301D02*
G01*
X183997645Y-83895383D01*
X183973664Y-83908088D01*
X183898691Y-83948181D01*
X183803922Y-84001238D01*
X183734239Y-84041525D01*
X183645673Y-84092303D01*
X183592315Y-84118625D01*
X183566099Y-84123514D01*
X183558959Y-84109992D01*
X183559006Y-84107167D01*
X183580462Y-84089142D01*
X183636512Y-84055396D01*
X183715737Y-84011786D01*
X183806719Y-83964166D01*
X183898042Y-83918393D01*
X183978286Y-83880321D01*
X184036035Y-83855806D01*
X184059661Y-83850410D01*
X184045084Y-83866301D01*
G37*
G36*
X180424674Y-85039519D02*
G01*
X180481512Y-85079086D01*
X180517842Y-85108347D01*
X180617265Y-85192467D01*
X180519099Y-85370680D01*
X180456709Y-85483847D01*
X180389692Y-85605255D01*
X180335844Y-85702676D01*
X180281538Y-85802080D01*
X180228010Y-85902075D01*
X180194919Y-85965391D01*
X180159049Y-86029144D01*
X180130836Y-86068360D01*
X180122325Y-86074321D01*
X180115421Y-86050379D01*
X180109229Y-85985305D01*
X180104453Y-85889229D01*
X180101888Y-85780200D01*
X180098210Y-85486079D01*
X180229992Y-85254771D01*
X180287209Y-85158880D01*
X180337726Y-85082466D01*
X180375030Y-85034924D01*
X180390096Y-85023845D01*
X180424674Y-85039519D01*
G37*
G36*
X184763338Y-79032783D02*
G01*
X184736168Y-79069079D01*
X184683424Y-79130199D01*
X184607488Y-79213009D01*
X184510743Y-79314379D01*
X184496369Y-79329161D01*
X184392189Y-79436861D01*
X184291673Y-79542193D01*
X184204669Y-79634740D01*
X184141027Y-79704087D01*
X184128748Y-79717913D01*
X184057003Y-79799687D01*
X183984885Y-79881858D01*
X183950757Y-79920729D01*
X183895395Y-79974560D01*
X183861910Y-79984304D01*
X183855023Y-79977607D01*
X183862458Y-79942485D01*
X183906572Y-79876500D01*
X183985082Y-79782104D01*
X184095708Y-79661750D01*
X184236168Y-79517889D01*
X184404181Y-79352975D01*
X184597466Y-79169458D01*
X184667568Y-79104157D01*
X184731421Y-79047190D01*
X184762550Y-79024442D01*
X184763338Y-79032783D01*
G37*
G36*
X179916110Y-79016646D02*
G01*
X179912850Y-79067416D01*
X179901941Y-79151869D01*
X179885588Y-79253383D01*
X179882097Y-79272953D01*
X179862123Y-79388133D01*
X179838581Y-79531412D01*
X179815151Y-79680144D01*
X179803600Y-79756359D01*
X179781847Y-79897283D01*
X179757901Y-80044176D01*
X179735422Y-80174907D01*
X179724786Y-80233084D01*
X179706817Y-80336582D01*
X179693701Y-80428315D01*
X179688008Y-80490068D01*
X179687945Y-80494286D01*
X179678416Y-80549723D01*
X179656264Y-80580553D01*
X179631139Y-80574723D01*
X179627559Y-80569697D01*
X179626069Y-80536297D01*
X179633701Y-80466711D01*
X179648841Y-80374874D01*
X179652090Y-80357826D01*
X179669501Y-80266000D01*
X179693302Y-80137345D01*
X179720996Y-79985518D01*
X179750085Y-79824176D01*
X179766770Y-79730729D01*
X179810115Y-79489968D01*
X179845728Y-79298784D01*
X179873833Y-79156114D01*
X179894651Y-79060895D01*
X179908404Y-79012064D01*
X179915316Y-79008558D01*
X179916110Y-79016646D01*
G37*
G36*
X178239529Y-77032220D02*
G01*
X178252807Y-77053316D01*
X178264214Y-77096750D01*
X178274955Y-77169294D01*
X178286236Y-77277719D01*
X178299261Y-77428794D01*
X178303028Y-77475229D01*
X178315954Y-77632301D01*
X178330291Y-77800889D01*
X178344129Y-77958787D01*
X178353765Y-78064735D01*
X178370054Y-78248511D01*
X178386321Y-78448975D01*
X178402191Y-78659804D01*
X178417290Y-78874673D01*
X178431245Y-79087257D01*
X178443679Y-79291232D01*
X178454221Y-79480273D01*
X178462494Y-79648056D01*
X178468124Y-79788257D01*
X178470738Y-79894550D01*
X178469962Y-79960612D01*
X178467099Y-79979704D01*
X178434108Y-79996558D01*
X178404899Y-79999851D01*
X178371236Y-79989794D01*
X178356688Y-79950823D01*
X178354184Y-79903736D01*
X178351709Y-79790533D01*
X178346341Y-79633813D01*
X178338485Y-79441214D01*
X178328546Y-79220373D01*
X178316930Y-78978930D01*
X178304041Y-78724520D01*
X178290286Y-78464783D01*
X178276069Y-78207356D01*
X178261796Y-77959878D01*
X178247871Y-77729986D01*
X178234701Y-77525318D01*
X178222690Y-77353512D01*
X178212245Y-77222206D01*
X178211384Y-77212515D01*
X178204862Y-77105403D01*
X178209085Y-77044727D01*
X178223174Y-77026692D01*
X178239529Y-77032220D01*
G37*
G36*
X176261829Y-85108883D02*
G01*
X176287276Y-85162677D01*
X176313005Y-85258887D01*
X176328510Y-85327666D01*
X176354734Y-85445227D01*
X176379579Y-85553958D01*
X176399245Y-85637333D01*
X176405917Y-85664230D01*
X176419032Y-85721246D01*
X176437434Y-85811411D01*
X176461791Y-85938271D01*
X176492772Y-86105368D01*
X176531046Y-86316246D01*
X176572651Y-86548489D01*
X176593759Y-86670523D01*
X176618223Y-86817487D01*
X176641777Y-86963618D01*
X176649023Y-87009841D01*
X176667790Y-87129721D01*
X176692019Y-87283094D01*
X176718996Y-87452850D01*
X176746005Y-87621876D01*
X176754730Y-87676238D01*
X176797325Y-87946613D01*
X176830428Y-88168505D01*
X176853983Y-88341485D01*
X176867932Y-88465124D01*
X176872217Y-88538993D01*
X176871608Y-88551404D01*
X176847030Y-88566048D01*
X176787675Y-88575540D01*
X176709803Y-88579514D01*
X176629673Y-88577601D01*
X176563547Y-88569434D01*
X176533043Y-88559057D01*
X176517137Y-88526097D01*
X176500915Y-88453351D01*
X176486653Y-88352230D01*
X176481477Y-88300465D01*
X176438676Y-87833761D01*
X176396010Y-87410039D01*
X176352439Y-87021033D01*
X176306926Y-86658477D01*
X176258430Y-86314105D01*
X176205915Y-85979652D01*
X176148341Y-85646851D01*
X176147364Y-85641444D01*
X176066770Y-85195752D01*
X176128064Y-85149428D01*
X176188135Y-85107515D01*
X176230753Y-85092248D01*
X176261829Y-85108883D01*
G37*
G36*
X178853800Y-84102552D02*
G01*
X178958412Y-84116167D01*
X179048510Y-84136228D01*
X179072652Y-84144198D01*
X179207456Y-84205841D01*
X179328879Y-84288881D01*
X179448206Y-84402362D01*
X179561610Y-84536064D01*
X179747021Y-84797204D01*
X179885078Y-85054211D01*
X179978395Y-85314396D01*
X180029586Y-85585069D01*
X180041264Y-85873540D01*
X180041174Y-85877162D01*
X180037776Y-85999529D01*
X180034155Y-86076487D01*
X180028925Y-86113874D01*
X180020700Y-86117530D01*
X180008094Y-86093294D01*
X179996653Y-86064731D01*
X179964704Y-85996450D01*
X179932881Y-85948263D01*
X179926982Y-85942471D01*
X179891033Y-85928761D01*
X179814500Y-85909526D01*
X179707470Y-85886994D01*
X179580029Y-85863397D01*
X179533345Y-85855445D01*
X179384176Y-85829583D01*
X179272321Y-85806577D01*
X179184321Y-85782206D01*
X179106719Y-85752249D01*
X179026056Y-85712486D01*
X178957578Y-85674882D01*
X178825335Y-85590188D01*
X178688219Y-85484463D01*
X178557064Y-85367746D01*
X178442701Y-85250075D01*
X178355966Y-85141488D01*
X178322480Y-85086416D01*
X178290919Y-85006496D01*
X178262206Y-84903216D01*
X178248490Y-84834051D01*
X178222559Y-84662984D01*
X178208212Y-84535827D01*
X178207663Y-84446094D01*
X178223129Y-84387296D01*
X178256825Y-84352947D01*
X178310965Y-84336559D01*
X178387766Y-84331645D01*
X178420129Y-84331435D01*
X178585826Y-84331435D01*
X178585826Y-84230425D01*
X178592473Y-84161656D01*
X178608977Y-84116904D01*
X178614325Y-84111802D01*
X178665612Y-84099228D01*
X178750818Y-84096525D01*
X178853800Y-84102552D01*
G37*
G36*
X174150000Y-78874277D02*
G01*
X174151293Y-78917317D01*
X174151341Y-78939363D01*
X174171344Y-79085407D01*
X174225768Y-79241004D01*
X174293685Y-79364942D01*
X174330531Y-79433049D01*
X174353377Y-79498585D01*
X174358525Y-79547060D01*
X174344483Y-79564129D01*
X174306581Y-79571628D01*
X174231723Y-79591727D01*
X174131585Y-79620827D01*
X174017847Y-79655333D01*
X173902187Y-79691645D01*
X173796283Y-79726168D01*
X173711814Y-79755303D01*
X173664736Y-79773519D01*
X173581778Y-79820001D01*
X173510281Y-79876655D01*
X173491448Y-79897179D01*
X173443236Y-79986964D01*
X173407691Y-80111149D01*
X173388347Y-80253694D01*
X173386967Y-80371325D01*
X173387739Y-80450240D01*
X173376104Y-80495071D01*
X173346123Y-80522582D01*
X173330362Y-80531138D01*
X173262934Y-80555772D01*
X173215091Y-80563348D01*
X173167930Y-80570443D01*
X173086053Y-80589103D01*
X172983779Y-80615934D01*
X172934712Y-80629828D01*
X172630917Y-80742107D01*
X172359785Y-80893652D01*
X172120382Y-81085225D01*
X171911775Y-81317584D01*
X171733032Y-81591488D01*
X171716705Y-81621301D01*
X171609495Y-81820248D01*
X171323544Y-81800715D01*
X171181963Y-81793032D01*
X171011198Y-81786770D01*
X170833321Y-81782600D01*
X170678763Y-81781183D01*
X170528012Y-81782240D01*
X170418615Y-81786107D01*
X170340695Y-81793825D01*
X170284374Y-81806434D01*
X170239776Y-81824978D01*
X170233947Y-81828084D01*
X170147960Y-81874985D01*
X170166500Y-81738377D01*
X170197026Y-81531967D01*
X170233858Y-81312922D01*
X170275221Y-81089523D01*
X170319336Y-80870050D01*
X170364429Y-80662785D01*
X170408721Y-80476009D01*
X170450436Y-80318001D01*
X170487798Y-80197044D01*
X170509005Y-80141990D01*
X170543466Y-80070531D01*
X170571991Y-80036613D01*
X170606655Y-80029786D01*
X170633764Y-80034005D01*
X170682604Y-80044728D01*
X170770860Y-80064840D01*
X170888062Y-80091930D01*
X171023742Y-80123582D01*
X171101669Y-80141879D01*
X171403572Y-80202974D01*
X171667547Y-80234750D01*
X171897573Y-80237400D01*
X172097635Y-80211120D01*
X172165342Y-80193964D01*
X172464603Y-80106112D01*
X172719122Y-80028565D01*
X172933797Y-79958838D01*
X173113525Y-79894445D01*
X173263204Y-79832903D01*
X173387732Y-79771724D01*
X173492008Y-79708426D01*
X173580929Y-79640521D01*
X173659392Y-79565527D01*
X173732296Y-79480956D01*
X173804538Y-79384325D01*
X173828567Y-79350088D01*
X173900379Y-79245047D01*
X173965961Y-79146330D01*
X174016751Y-79066978D01*
X174039469Y-79028946D01*
X174092786Y-78933342D01*
X174125686Y-78878333D01*
X174143111Y-78859964D01*
X174150000Y-78874277D01*
G37*
G36*
X186451139Y-77613052D02*
G01*
X186560609Y-77620841D01*
X186750258Y-77641120D01*
X186916323Y-77670426D01*
X187069679Y-77712908D01*
X187221199Y-77772713D01*
X187381757Y-77853988D01*
X187562226Y-77960882D01*
X187723162Y-78064286D01*
X187871684Y-78160927D01*
X187985277Y-78231940D01*
X188071057Y-78281026D01*
X188136137Y-78311885D01*
X188187632Y-78328219D01*
X188232657Y-78333728D01*
X188241368Y-78333857D01*
X188299475Y-78321246D01*
X188370827Y-78289675D01*
X188439421Y-78248542D01*
X188489250Y-78207242D01*
X188504898Y-78179149D01*
X188524653Y-78155419D01*
X188532256Y-78154442D01*
X188549649Y-78171914D01*
X188535889Y-78220242D01*
X188495315Y-78293298D01*
X188432266Y-78384954D01*
X188351081Y-78489079D01*
X188256100Y-78599545D01*
X188151663Y-78710223D01*
X188108603Y-78752803D01*
X187880841Y-78952995D01*
X187634594Y-79133070D01*
X187381193Y-79285937D01*
X187131971Y-79404504D01*
X186979873Y-79459118D01*
X186878652Y-79490319D01*
X186786378Y-79518860D01*
X186723566Y-79538394D01*
X186577924Y-79574641D01*
X186405099Y-79602852D01*
X186217162Y-79622478D01*
X186026188Y-79632969D01*
X185844248Y-79633777D01*
X185683416Y-79624351D01*
X185555765Y-79604143D01*
X185517716Y-79593267D01*
X185387099Y-79538067D01*
X185248760Y-79461838D01*
X185114205Y-79372747D01*
X184994935Y-79278962D01*
X184902455Y-79188651D01*
X184854293Y-79122201D01*
X184821891Y-79026756D01*
X184834357Y-78935406D01*
X184893343Y-78838230D01*
X184903780Y-78825523D01*
X184947976Y-78760326D01*
X184966640Y-78705793D01*
X184957473Y-78673158D01*
X184935826Y-78668969D01*
X184880585Y-78669297D01*
X184832002Y-78648108D01*
X184774044Y-78597037D01*
X184749948Y-78572009D01*
X184690579Y-78504290D01*
X184665507Y-78456293D01*
X184670968Y-78413399D01*
X184697648Y-78368828D01*
X184730269Y-78336676D01*
X184783331Y-78309124D01*
X184863159Y-78284558D01*
X184976077Y-78261366D01*
X185128407Y-78237936D01*
X185295212Y-78216431D01*
X185451273Y-78198973D01*
X185570287Y-78190004D01*
X185665707Y-78189213D01*
X185750985Y-78196287D01*
X185805201Y-78204578D01*
X185971997Y-78242987D01*
X186098145Y-78297158D01*
X186193655Y-78375008D01*
X186268534Y-78484455D01*
X186326797Y-78617149D01*
X186374034Y-78724109D01*
X186417926Y-78781622D01*
X186460067Y-78791262D01*
X186485865Y-78774040D01*
X186497317Y-78732251D01*
X186495562Y-78648379D01*
X186481472Y-78529633D01*
X186455916Y-78383218D01*
X186419765Y-78216344D01*
X186417245Y-78205704D01*
X186370967Y-78007252D01*
X186337561Y-77854601D01*
X186316336Y-77744117D01*
X186306599Y-77672167D01*
X186307656Y-77635118D01*
X186308186Y-77633553D01*
X186326309Y-77618411D01*
X186371210Y-77611716D01*
X186451139Y-77613052D01*
G37*
G36*
X176230521Y-83234218D02*
G01*
X176344981Y-83241479D01*
X176455576Y-83254888D01*
X176529113Y-83272942D01*
X176579794Y-83300008D01*
X176603886Y-83321130D01*
X176665002Y-83382247D01*
X176614389Y-83481457D01*
X176584522Y-83562357D01*
X176595005Y-83613080D01*
X176647371Y-83636926D01*
X176687875Y-83639796D01*
X176776825Y-83650471D01*
X176872709Y-83677119D01*
X176956778Y-83713083D01*
X177010287Y-83751712D01*
X177013048Y-83755209D01*
X177036167Y-83794662D01*
X177044491Y-83838008D01*
X177036494Y-83895846D01*
X177010651Y-83978772D01*
X176965434Y-84097383D01*
X176962834Y-84103946D01*
X176917352Y-84219573D01*
X176872715Y-84334664D01*
X176837012Y-84428323D01*
X176830389Y-84446051D01*
X176749825Y-84594619D01*
X176620480Y-84740724D01*
X176444833Y-84882375D01*
X176225363Y-85017582D01*
X175964549Y-85144355D01*
X175956156Y-85147988D01*
X175745278Y-85231717D01*
X175560979Y-85287312D01*
X175389025Y-85317658D01*
X175215184Y-85325639D01*
X175103164Y-85320829D01*
X174879165Y-85304965D01*
X174700606Y-85292883D01*
X174561754Y-85285396D01*
X174456873Y-85283319D01*
X174380230Y-85287466D01*
X174326089Y-85298650D01*
X174288717Y-85317686D01*
X174262378Y-85345387D01*
X174241338Y-85382568D01*
X174219863Y-85430043D01*
X174212062Y-85447323D01*
X174177016Y-85521292D01*
X174150711Y-85572037D01*
X174140179Y-85587338D01*
X174137344Y-85564349D01*
X174138644Y-85505587D01*
X174141323Y-85459939D01*
X174168502Y-85268437D01*
X174222269Y-85050785D01*
X174244743Y-84982157D01*
X174541099Y-84982157D01*
X174562416Y-84981411D01*
X174621737Y-84947874D01*
X174718585Y-84880534D01*
X174852479Y-84778381D01*
X174882193Y-84754852D01*
X175068425Y-84609537D01*
X175265870Y-84460712D01*
X175468124Y-84312792D01*
X175668780Y-84170193D01*
X175861434Y-84037333D01*
X176039680Y-83918626D01*
X176197112Y-83818490D01*
X176327325Y-83741341D01*
X176423913Y-83691595D01*
X176425162Y-83691040D01*
X176490308Y-83653504D01*
X176519758Y-83619401D01*
X176511969Y-83597039D01*
X176465393Y-83594728D01*
X176442186Y-83599544D01*
X176296462Y-83650790D01*
X176119881Y-83738226D01*
X175915619Y-83859709D01*
X175686851Y-84013094D01*
X175436752Y-84196238D01*
X175168499Y-84406997D01*
X174885267Y-84643227D01*
X174845481Y-84677449D01*
X174709980Y-84797758D01*
X174614402Y-84889319D01*
X174558268Y-84951123D01*
X174541099Y-84982157D01*
X174244743Y-84982157D01*
X174297487Y-84821099D01*
X174389019Y-84593492D01*
X174491728Y-84382080D01*
X174598400Y-84204029D01*
X174717270Y-84051861D01*
X174872008Y-83888335D01*
X175051686Y-83723014D01*
X175245372Y-83565459D01*
X175442137Y-83425229D01*
X175596983Y-83330510D01*
X175691866Y-83282706D01*
X175778738Y-83254450D01*
X175881128Y-83239298D01*
X175947545Y-83234502D01*
X176081540Y-83231213D01*
X176230521Y-83234218D01*
G37*
G36*
X180283197Y-81764500D02*
G01*
X180404282Y-81768368D01*
X180557041Y-81992636D01*
X180656247Y-82127958D01*
X180759262Y-82244334D01*
X180874452Y-82348213D01*
X181010184Y-82446049D01*
X181174824Y-82544294D01*
X181376740Y-82649398D01*
X181463965Y-82691988D01*
X181604931Y-82757551D01*
X181753961Y-82822963D01*
X181892791Y-82880416D01*
X181998179Y-82920368D01*
X182142212Y-82968896D01*
X182277157Y-83009276D01*
X182414135Y-83043978D01*
X182564268Y-83075468D01*
X182738678Y-83106217D01*
X182948487Y-83138691D01*
X183045466Y-83152811D01*
X183139791Y-83168313D01*
X183213140Y-83183999D01*
X183251699Y-83196840D01*
X183253747Y-83198462D01*
X183269477Y-83232134D01*
X183295735Y-83305746D01*
X183329435Y-83409817D01*
X183367491Y-83534865D01*
X183401427Y-83652222D01*
X183452938Y-83875046D01*
X183489682Y-84118724D01*
X183511013Y-84369912D01*
X183516281Y-84615268D01*
X183504838Y-84841448D01*
X183476036Y-85035109D01*
X183469897Y-85061686D01*
X183445538Y-85153769D01*
X183422874Y-85226811D01*
X183406591Y-85265793D01*
X183405911Y-85266731D01*
X183389505Y-85300857D01*
X183361587Y-85371858D01*
X183326668Y-85467918D01*
X183303074Y-85536077D01*
X183232261Y-85734790D01*
X183154974Y-85934776D01*
X183074633Y-86128506D01*
X182994662Y-86308457D01*
X182918482Y-86467100D01*
X182849516Y-86596911D01*
X182791187Y-86690362D01*
X182761431Y-86727191D01*
X182728516Y-86758205D01*
X182714832Y-86752978D01*
X182711502Y-86704703D01*
X182711291Y-86688745D01*
X182703904Y-86614210D01*
X182680596Y-86544771D01*
X182636798Y-86475888D01*
X182567943Y-86403019D01*
X182469462Y-86321623D01*
X182336787Y-86227158D01*
X182165351Y-86115084D01*
X182080185Y-86061354D01*
X181953950Y-85982014D01*
X181824063Y-85899884D01*
X181707051Y-85825438D01*
X181629776Y-85775845D01*
X181548029Y-85723839D01*
X181484156Y-85684754D01*
X181449147Y-85665266D01*
X181446044Y-85664230D01*
X181414280Y-85649579D01*
X181347587Y-85608516D01*
X181252053Y-85545374D01*
X181133764Y-85464487D01*
X180998809Y-85370191D01*
X180853274Y-85266819D01*
X180703248Y-85158704D01*
X180554817Y-85050182D01*
X180414070Y-84945586D01*
X180287093Y-84849251D01*
X180179975Y-84765511D01*
X180151180Y-84742321D01*
X179906632Y-84534979D01*
X179701489Y-84339905D01*
X179528786Y-84147511D01*
X179381557Y-83948215D01*
X179252837Y-83732428D01*
X179135660Y-83490567D01*
X179023063Y-83213045D01*
X179005209Y-83165239D01*
X178979496Y-83074906D01*
X178964315Y-82965322D01*
X178958038Y-82822887D01*
X178957644Y-82767964D01*
X178958469Y-82645095D01*
X178963189Y-82558283D01*
X178974898Y-82492330D01*
X178996683Y-82432036D01*
X179031637Y-82362205D01*
X179045311Y-82336832D01*
X179174311Y-82151497D01*
X179340730Y-82000440D01*
X179521346Y-81895521D01*
X179665596Y-81835472D01*
X179800095Y-81795027D01*
X179940146Y-81771554D01*
X180101054Y-81762420D01*
X180283197Y-81764500D01*
G37*
G36*
X178662864Y-88637490D02*
G01*
X179040505Y-88637820D01*
X179372448Y-88638415D01*
X179661477Y-88639313D01*
X179910374Y-88640553D01*
X180121919Y-88642171D01*
X180298896Y-88644206D01*
X180444086Y-88646695D01*
X180560271Y-88649676D01*
X180650234Y-88653186D01*
X180716756Y-88657264D01*
X180762619Y-88661946D01*
X180790606Y-88667272D01*
X180802176Y-88672151D01*
X180817110Y-88685786D01*
X180828256Y-88706201D01*
X180835918Y-88739796D01*
X180840406Y-88792974D01*
X180842023Y-88872137D01*
X180841078Y-88983686D01*
X180837876Y-89134025D01*
X180833059Y-89317306D01*
X180803475Y-89983672D01*
X180751555Y-90611724D01*
X180676194Y-91209806D01*
X180576285Y-91786260D01*
X180450724Y-92349431D01*
X180410361Y-92507621D01*
X180349096Y-92725738D01*
X180275512Y-92962852D01*
X180194912Y-93203388D01*
X180112596Y-93431773D01*
X180033864Y-93632430D01*
X180002298Y-93706611D01*
X179955876Y-93810359D01*
X179921639Y-93876556D01*
X179891638Y-93914793D01*
X179857925Y-93934662D01*
X179812551Y-93945754D01*
X179802637Y-93947539D01*
X179751796Y-93952039D01*
X179657182Y-93955917D01*
X179524247Y-93959185D01*
X179358444Y-93961853D01*
X179165226Y-93963935D01*
X178950045Y-93965441D01*
X178718354Y-93966382D01*
X178475606Y-93966772D01*
X178227252Y-93966621D01*
X177978747Y-93965940D01*
X177735542Y-93964743D01*
X177503091Y-93963039D01*
X177286845Y-93960841D01*
X177092258Y-93958160D01*
X176924782Y-93955008D01*
X176789870Y-93951397D01*
X176692974Y-93947338D01*
X176639547Y-93942843D01*
X176631307Y-93940785D01*
X176586227Y-93893508D01*
X176531693Y-93801432D01*
X176469545Y-93669758D01*
X176401623Y-93503687D01*
X176329768Y-93308423D01*
X176255820Y-93089166D01*
X176181618Y-92851119D01*
X176109003Y-92599483D01*
X176039814Y-92339461D01*
X175983812Y-92110345D01*
X175950170Y-91965125D01*
X175924684Y-91849997D01*
X175904192Y-91748426D01*
X175885531Y-91643876D01*
X175865539Y-91519813D01*
X175844108Y-91379871D01*
X175822037Y-91234477D01*
X175800106Y-91090488D01*
X175780776Y-90964024D01*
X175766505Y-90871206D01*
X175765895Y-90867258D01*
X175747460Y-90726919D01*
X175728641Y-90545094D01*
X175710142Y-90331548D01*
X175692664Y-90096045D01*
X175676912Y-89848349D01*
X175663589Y-89598224D01*
X175653397Y-89355435D01*
X175650361Y-89262794D01*
X175645309Y-89080777D01*
X175642670Y-88943113D01*
X175642753Y-88842935D01*
X175645867Y-88773377D01*
X175652318Y-88727574D01*
X175662417Y-88698660D01*
X175676471Y-88679770D01*
X175676544Y-88679696D01*
X175686641Y-88672688D01*
X175704067Y-88666494D01*
X175731824Y-88661063D01*
X175772911Y-88656346D01*
X175830328Y-88652293D01*
X175907076Y-88648856D01*
X176006155Y-88645984D01*
X176130564Y-88643627D01*
X176283304Y-88641737D01*
X176467375Y-88640263D01*
X176685777Y-88639157D01*
X176941509Y-88638367D01*
X177237573Y-88637846D01*
X177576967Y-88637543D01*
X177962693Y-88637409D01*
X178236744Y-88637389D01*
X178662864Y-88637490D01*
G37*
G36*
X186088605Y-82697121D02*
G01*
X186147010Y-82707422D01*
X186200350Y-82724932D01*
X186259625Y-82750667D01*
X186382634Y-82825325D01*
X186518597Y-82940063D01*
X186660367Y-83087806D01*
X186800800Y-83261477D01*
X186862980Y-83348121D01*
X186973687Y-83509675D01*
X187086094Y-83675930D01*
X187195289Y-83839423D01*
X187296361Y-83992690D01*
X187384396Y-84128269D01*
X187454483Y-84238697D01*
X187501709Y-84316509D01*
X187510167Y-84331435D01*
X187619147Y-84562717D01*
X187702835Y-84809602D01*
X187754435Y-85051125D01*
X187761333Y-85106375D01*
X187771753Y-85235982D01*
X187779133Y-85390433D01*
X187783428Y-85557727D01*
X187784591Y-85725867D01*
X187782578Y-85882854D01*
X187777343Y-86016688D01*
X187768839Y-86115371D01*
X187765267Y-86138398D01*
X187746250Y-86240921D01*
X187728689Y-86136324D01*
X187688086Y-86030287D01*
X187607575Y-85925314D01*
X187497389Y-85833116D01*
X187427988Y-85792169D01*
X187392680Y-85776002D01*
X187353527Y-85763640D01*
X187303449Y-85754577D01*
X187235369Y-85748311D01*
X187142208Y-85744338D01*
X187016885Y-85742154D01*
X186852324Y-85741256D01*
X186710423Y-85741122D01*
X186443860Y-85739144D01*
X186221054Y-85731853D01*
X186034608Y-85717218D01*
X185877123Y-85693204D01*
X185741201Y-85657779D01*
X185619443Y-85608911D01*
X185504452Y-85544566D01*
X185388829Y-85462712D01*
X185265175Y-85361315D01*
X185235901Y-85335958D01*
X185052246Y-85167350D01*
X184907947Y-85014108D01*
X184797020Y-84867685D01*
X184713481Y-84719532D01*
X184651345Y-84561101D01*
X184622362Y-84459589D01*
X184592574Y-84348448D01*
X184555027Y-84216953D01*
X184517827Y-84093494D01*
X184517681Y-84093028D01*
X184472476Y-83922098D01*
X184457287Y-83787537D01*
X184473664Y-83683085D01*
X184523159Y-83602479D01*
X184607323Y-83539457D01*
X184661292Y-83513269D01*
X184761289Y-83480030D01*
X184881336Y-83453618D01*
X184963705Y-83442825D01*
X185134464Y-83429017D01*
X185339509Y-83583540D01*
X185511123Y-83720005D01*
X185710563Y-83891818D01*
X185938706Y-84099799D01*
X186196425Y-84344770D01*
X186484597Y-84627550D01*
X186804096Y-84948962D01*
X186900083Y-85046803D01*
X187023727Y-85171121D01*
X187118487Y-85262026D01*
X187183303Y-85318741D01*
X187217111Y-85340490D01*
X187218850Y-85326495D01*
X187187459Y-85275980D01*
X187158132Y-85235614D01*
X187078097Y-85134611D01*
X186968361Y-85004936D01*
X186835630Y-84853999D01*
X186686614Y-84689212D01*
X186528020Y-84517987D01*
X186366555Y-84347734D01*
X186208929Y-84185866D01*
X186198137Y-84174965D01*
X185953034Y-83936978D01*
X185729781Y-83739475D01*
X185529638Y-83583474D01*
X185353863Y-83469994D01*
X185277564Y-83430479D01*
X185251453Y-83416284D01*
X185762415Y-83416284D01*
X185784397Y-83469650D01*
X185844563Y-83500129D01*
X185934245Y-83505638D01*
X186044522Y-83484168D01*
X186118741Y-83464574D01*
X186218638Y-83441752D01*
X186298575Y-83425375D01*
X186414564Y-83395565D01*
X186481170Y-83359445D01*
X186500066Y-83315314D01*
X186472923Y-83261470D01*
X186466702Y-83254331D01*
X186366165Y-83178917D01*
X186240098Y-83137216D01*
X186103965Y-83132160D01*
X185982832Y-83162520D01*
X185913469Y-83205807D01*
X185844945Y-83270878D01*
X185790506Y-83342483D01*
X185763397Y-83405373D01*
X185762415Y-83416284D01*
X185251453Y-83416284D01*
X185198440Y-83387464D01*
X185164287Y-83352409D01*
X185163941Y-83331839D01*
X185172101Y-83288742D01*
X185180099Y-83210174D01*
X185186387Y-83111910D01*
X185187110Y-83095902D01*
X185196501Y-82970528D01*
X185216857Y-82875355D01*
X185254563Y-82805994D01*
X185316001Y-82758059D01*
X185407557Y-82727159D01*
X185535614Y-82708907D01*
X185706556Y-82698914D01*
X185767618Y-82696857D01*
X185910446Y-82693101D01*
X186013596Y-82692768D01*
X186088605Y-82697121D01*
G37*
G36*
X173385376Y-80607434D02*
G01*
X173386150Y-80608086D01*
X173395769Y-80640014D01*
X173407421Y-80712489D01*
X173419668Y-80814915D01*
X173431074Y-80936693D01*
X173431579Y-80942887D01*
X173444231Y-81083153D01*
X173458096Y-81187363D01*
X173476726Y-81270671D01*
X173503668Y-81348230D01*
X173542473Y-81435192D01*
X173551164Y-81453372D01*
X173625953Y-81588809D01*
X173717238Y-81711411D01*
X173828857Y-81830422D01*
X173941369Y-81935320D01*
X174073655Y-82048732D01*
X174214922Y-82162309D01*
X174354376Y-82267700D01*
X174481224Y-82356555D01*
X174584674Y-82420524D01*
X174606701Y-82432198D01*
X174773836Y-82500911D01*
X174952533Y-82542142D01*
X175150361Y-82556260D01*
X175374894Y-82543636D01*
X175633703Y-82504640D01*
X175724053Y-82486848D01*
X175832302Y-82466044D01*
X175921550Y-82451761D01*
X175980109Y-82445708D01*
X175996246Y-82447035D01*
X176017919Y-82477355D01*
X176044575Y-82535184D01*
X176047639Y-82543146D01*
X176076298Y-82616835D01*
X176101392Y-82677575D01*
X176101691Y-82678257D01*
X176133085Y-82753842D01*
X176168931Y-82846219D01*
X176204872Y-82943269D01*
X176236552Y-83032878D01*
X176259616Y-83102928D01*
X176269707Y-83141305D01*
X176269471Y-83144931D01*
X176247923Y-83137250D01*
X176217864Y-83086399D01*
X176182798Y-82999041D01*
X176165618Y-82947379D01*
X176124900Y-82834398D01*
X176084646Y-82751853D01*
X176048801Y-82706627D01*
X176025197Y-82702380D01*
X176012569Y-82732756D01*
X176000035Y-82799499D01*
X175990829Y-82882605D01*
X175968378Y-83024955D01*
X175927877Y-83121474D01*
X175869891Y-83171112D01*
X175831800Y-83178055D01*
X175764070Y-83193160D01*
X175664513Y-83235447D01*
X175541568Y-83300370D01*
X175403671Y-83383384D01*
X175259261Y-83479944D01*
X175221683Y-83506712D01*
X174980401Y-83700965D01*
X174762638Y-83916028D01*
X174580334Y-84139763D01*
X174536627Y-84203282D01*
X174462235Y-84315252D01*
X174407021Y-84391907D01*
X174361820Y-84440643D01*
X174317471Y-84468860D01*
X174264809Y-84483955D01*
X174194671Y-84493326D01*
X174174675Y-84495496D01*
X174016087Y-84516107D01*
X173829694Y-84545678D01*
X173637346Y-84580437D01*
X173460895Y-84616613D01*
X173421245Y-84625571D01*
X173333466Y-84643169D01*
X173211615Y-84664011D01*
X173072529Y-84685361D01*
X172947077Y-84702675D01*
X172690875Y-84736709D01*
X172479581Y-84767042D01*
X172307111Y-84795194D01*
X172167378Y-84822684D01*
X172054297Y-84851031D01*
X171961782Y-84881755D01*
X171883748Y-84916376D01*
X171814108Y-84956413D01*
X171748843Y-85001845D01*
X171675766Y-85053876D01*
X171633833Y-85076107D01*
X171614962Y-85071738D01*
X171611247Y-85056332D01*
X171609787Y-85008108D01*
X171610539Y-84993550D01*
X171609656Y-84961824D01*
X171605362Y-84887854D01*
X171598309Y-84780495D01*
X171589149Y-84648604D01*
X171578537Y-84501035D01*
X171567123Y-84346646D01*
X171555562Y-84194290D01*
X171544506Y-84052825D01*
X171534607Y-83931106D01*
X171526520Y-83837988D01*
X171521865Y-83790699D01*
X171506024Y-83647239D01*
X171784422Y-83429047D01*
X171901271Y-83339035D01*
X172018137Y-83251719D01*
X172122045Y-83176630D01*
X172200019Y-83123301D01*
X172204899Y-83120164D01*
X172299803Y-83056569D01*
X172360145Y-83006650D01*
X172396638Y-82960037D01*
X172417088Y-82914759D01*
X172413803Y-82858142D01*
X172370625Y-82808926D01*
X172298894Y-82776207D01*
X172234070Y-82767964D01*
X172096503Y-82783846D01*
X171941335Y-82826798D01*
X171786147Y-82889780D01*
X171648521Y-82965750D01*
X171552817Y-83040778D01*
X171478931Y-83113978D01*
X171494343Y-82780779D01*
X171531843Y-82403853D01*
X171607629Y-82059923D01*
X171721196Y-81749631D01*
X171872040Y-81473617D01*
X172059656Y-81232523D01*
X172283541Y-81026991D01*
X172543190Y-80857663D01*
X172838098Y-80725180D01*
X173167762Y-80630183D01*
X173188688Y-80625678D01*
X173279110Y-80609747D01*
X173349484Y-80603238D01*
X173385376Y-80607434D01*
G37*
G36*
X178720736Y-80064763D02*
G01*
X178816697Y-80067818D01*
X178886020Y-80075547D01*
X178941014Y-80089997D01*
X178993990Y-80113216D01*
X179045617Y-80140820D01*
X179118230Y-80189633D01*
X179215021Y-80266802D01*
X179325600Y-80362832D01*
X179439574Y-80468230D01*
X179546552Y-80573501D01*
X179636142Y-80669152D01*
X179676858Y-80717510D01*
X179741238Y-80803195D01*
X179814856Y-80907803D01*
X179888209Y-81017102D01*
X179951792Y-81116863D01*
X179996104Y-81192857D01*
X180002086Y-81204493D01*
X180038990Y-81287829D01*
X180077390Y-81388269D01*
X180112043Y-81490257D01*
X180137704Y-81578236D01*
X180149131Y-81636650D01*
X180149297Y-81641237D01*
X180125810Y-81682991D01*
X180054933Y-81708090D01*
X179936047Y-81716756D01*
X179935956Y-81716756D01*
X179849057Y-81727560D01*
X179733901Y-81755672D01*
X179608023Y-81795365D01*
X179488957Y-81840911D01*
X179394240Y-81886579D01*
X179369814Y-81901717D01*
X179209427Y-82032839D01*
X179073046Y-82186773D01*
X178989068Y-82319427D01*
X178925937Y-82490406D01*
X178895305Y-82687121D01*
X178898077Y-82894943D01*
X178935157Y-83099240D01*
X178939804Y-83115578D01*
X179066112Y-83477338D01*
X179224479Y-83805538D01*
X179419721Y-84110043D01*
X179436635Y-84133078D01*
X179505873Y-84234274D01*
X179543927Y-84308018D01*
X179549280Y-84347491D01*
X179533647Y-84364669D01*
X179503722Y-84354235D01*
X179450895Y-84312023D01*
X179422190Y-84286014D01*
X179352127Y-84224783D01*
X179289373Y-84175570D01*
X179258976Y-84155634D01*
X179141357Y-84105081D01*
X179005838Y-84066039D01*
X178867519Y-84041044D01*
X178741502Y-84032635D01*
X178642889Y-84043346D01*
X178624794Y-84049113D01*
X178551250Y-84088033D01*
X178516836Y-84141665D01*
X178509327Y-84209689D01*
X178506050Y-84250345D01*
X178488290Y-84271301D01*
X178443276Y-84279071D01*
X178371104Y-84280174D01*
X178275972Y-84286673D01*
X178214040Y-84312212D01*
X178177088Y-84365857D01*
X178156894Y-84456670D01*
X178150105Y-84523843D01*
X178137289Y-84682927D01*
X178047582Y-84651268D01*
X177889002Y-84587368D01*
X177717527Y-84504857D01*
X177544817Y-84410568D01*
X177382534Y-84311330D01*
X177242335Y-84213975D01*
X177135883Y-84125334D01*
X177116173Y-84105613D01*
X177070716Y-84050886D01*
X177059355Y-84010881D01*
X177071319Y-83976898D01*
X177103071Y-83872977D01*
X177087202Y-83777423D01*
X177027306Y-83696380D01*
X176926975Y-83635995D01*
X176859551Y-83614687D01*
X176757191Y-83588432D01*
X176697249Y-83565592D01*
X176671936Y-83539250D01*
X176673459Y-83502492D01*
X176688113Y-83462511D01*
X176707110Y-83399528D01*
X176696536Y-83349659D01*
X176676665Y-83315920D01*
X176619852Y-83256936D01*
X176558909Y-83220680D01*
X176486496Y-83166801D01*
X176449574Y-83102189D01*
X176401177Y-82953165D01*
X176360501Y-82779099D01*
X176333086Y-82606165D01*
X176325391Y-82515598D01*
X176317511Y-82352940D01*
X176508784Y-82303919D01*
X176646698Y-82262803D01*
X176774099Y-82210780D01*
X176898228Y-82142897D01*
X177026326Y-82054204D01*
X177165634Y-81939749D01*
X177323395Y-81794582D01*
X177482772Y-81637965D01*
X177606162Y-81516011D01*
X177724375Y-81402561D01*
X177830324Y-81304156D01*
X177916924Y-81227339D01*
X177977088Y-81178652D01*
X177989438Y-81170184D01*
X178068178Y-81128248D01*
X178174424Y-81081458D01*
X178286464Y-81039302D01*
X178297006Y-81035755D01*
X178394845Y-81000525D01*
X178476151Y-80966304D01*
X178526444Y-80939318D01*
X178532363Y-80934540D01*
X178551585Y-80905001D01*
X178543828Y-80872448D01*
X178504085Y-80830939D01*
X178427352Y-80774532D01*
X178360328Y-80730325D01*
X178215609Y-80616382D01*
X178078964Y-80471465D01*
X177976530Y-80327941D01*
X177950124Y-80276554D01*
X177953972Y-80241939D01*
X177981496Y-80207117D01*
X178053754Y-80148797D01*
X178153388Y-80106922D01*
X178286695Y-80080005D01*
X178459973Y-80066556D01*
X178585826Y-80064334D01*
X178720736Y-80064763D01*
G37*
G36*
X182756372Y-79021525D02*
G01*
X182830639Y-79030592D01*
X182890950Y-79046571D01*
X182944896Y-79068683D01*
X183053371Y-79133659D01*
X183176642Y-79231864D01*
X183303104Y-79352582D01*
X183421154Y-79485102D01*
X183482574Y-79565063D01*
X183558709Y-79670333D01*
X183645753Y-79789722D01*
X183719576Y-79890211D01*
X183775889Y-79970016D01*
X183816578Y-80034563D01*
X183834783Y-80072732D01*
X183834914Y-80077184D01*
X183810255Y-80075929D01*
X183750659Y-80055307D01*
X183666829Y-80019292D01*
X183622254Y-79998251D01*
X183509130Y-79947897D01*
X183393634Y-79903826D01*
X183297137Y-79874039D01*
X183280028Y-79870082D01*
X183146995Y-79854602D01*
X183027625Y-79863609D01*
X182930825Y-79894236D01*
X182865498Y-79943617D01*
X182840551Y-80008888D01*
X182840518Y-80011512D01*
X182848692Y-80051971D01*
X182876283Y-80090998D01*
X182927902Y-80130902D01*
X183008154Y-80173994D01*
X183121647Y-80222585D01*
X183272991Y-80278983D01*
X183466791Y-80345500D01*
X183583808Y-80384177D01*
X183710465Y-80429083D01*
X183839124Y-80480362D01*
X183948370Y-80529297D01*
X183981083Y-80545861D01*
X184075263Y-80602223D01*
X184143039Y-80661754D01*
X184188541Y-80733973D01*
X184215901Y-80828400D01*
X184229252Y-80954552D01*
X184232725Y-81121950D01*
X184232722Y-81125622D01*
X184228480Y-81259392D01*
X184215177Y-81402017D01*
X184191545Y-81559756D01*
X184156313Y-81738864D01*
X184108210Y-81945602D01*
X184045967Y-82186225D01*
X183968313Y-82466993D01*
X183941015Y-82562799D01*
X183902563Y-82703397D01*
X183868279Y-82840560D01*
X183841572Y-82959828D01*
X183825854Y-83046738D01*
X183824629Y-83056309D01*
X183816005Y-83127891D01*
X183803732Y-83172178D01*
X183777898Y-83193177D01*
X183728587Y-83194893D01*
X183645888Y-83181331D01*
X183558177Y-83163976D01*
X183453444Y-83145817D01*
X183321525Y-83126447D01*
X183186286Y-83109298D01*
X183148086Y-83105040D01*
X182729767Y-83047403D01*
X182347326Y-82966203D01*
X181989354Y-82857675D01*
X181644445Y-82718050D01*
X181301192Y-82543561D01*
X181109886Y-82431921D01*
X180973317Y-82345418D01*
X180869536Y-82269099D01*
X180785308Y-82190572D01*
X180707400Y-82097442D01*
X180622576Y-81977316D01*
X180619426Y-81972630D01*
X180440227Y-81668484D01*
X180312149Y-81365859D01*
X180235090Y-81064344D01*
X180208947Y-80763527D01*
X180233616Y-80462997D01*
X180236624Y-80445451D01*
X180299817Y-80170049D01*
X180385201Y-79928730D01*
X180490740Y-79724141D01*
X180614399Y-79558931D01*
X180754142Y-79435746D01*
X180907934Y-79357234D01*
X181073739Y-79326043D01*
X181097632Y-79325603D01*
X181174378Y-79329491D01*
X181244472Y-79343992D01*
X181318964Y-79373830D01*
X181408902Y-79423732D01*
X181525338Y-79498426D01*
X181567225Y-79526467D01*
X181646912Y-79574062D01*
X181718185Y-79606332D01*
X181756905Y-79615391D01*
X181807441Y-79635545D01*
X181874556Y-79696823D01*
X181959195Y-79800452D01*
X182062304Y-79947657D01*
X182184827Y-80139662D01*
X182270984Y-80281788D01*
X182347973Y-80411296D01*
X182418498Y-80530829D01*
X182477131Y-80631119D01*
X182518443Y-80702895D01*
X182533679Y-80730325D01*
X182563742Y-80785677D01*
X182611192Y-80871793D01*
X182668328Y-80974733D01*
X182703564Y-81037893D01*
X182765171Y-81151981D01*
X182844405Y-81304797D01*
X182937385Y-81488541D01*
X183040228Y-81695412D01*
X183149053Y-81917609D01*
X183259978Y-82147330D01*
X183356465Y-82349974D01*
X183414341Y-82466190D01*
X183459969Y-82545024D01*
X183491232Y-82583415D01*
X183506012Y-82578303D01*
X183506916Y-82567483D01*
X183497495Y-82528032D01*
X183472291Y-82453555D01*
X183435894Y-82356065D01*
X183392894Y-82247577D01*
X183347880Y-82140102D01*
X183317294Y-82071170D01*
X183282437Y-81992628D01*
X183258303Y-81933725D01*
X183250609Y-81909502D01*
X183239541Y-81875067D01*
X183208498Y-81801595D01*
X183160724Y-81695747D01*
X183099462Y-81564187D01*
X183027956Y-81413579D01*
X182949449Y-81250586D01*
X182867185Y-81081871D01*
X182784406Y-80914098D01*
X182704357Y-80753931D01*
X182630280Y-80608031D01*
X182565419Y-80483064D01*
X182513018Y-80385692D01*
X182485275Y-80337164D01*
X182390720Y-80189841D01*
X182280155Y-80034605D01*
X182164514Y-79885713D01*
X182054731Y-79757418D01*
X181986243Y-79686559D01*
X181858233Y-79563824D01*
X181902133Y-79405924D01*
X181945633Y-79271949D01*
X181996414Y-79172571D01*
X182062475Y-79102742D01*
X182151814Y-79057413D01*
X182272429Y-79031536D01*
X182432320Y-79020062D01*
X182516316Y-79018286D01*
X182655736Y-79017910D01*
X182756372Y-79021525D01*
G37*
G36*
X175750047Y-78301819D02*
G01*
X175789658Y-78389452D01*
X175820357Y-78473272D01*
X175829018Y-78505093D01*
X175857558Y-78590213D01*
X175895508Y-78624967D01*
X175942880Y-78609352D01*
X175999687Y-78543363D01*
X176062642Y-78433543D01*
X176098303Y-78369697D01*
X176134454Y-78329638D01*
X176180520Y-78312309D01*
X176245926Y-78316655D01*
X176340100Y-78341620D01*
X176472466Y-78386147D01*
X176475661Y-78387263D01*
X176671294Y-78463740D01*
X176853358Y-78550361D01*
X177009424Y-78640643D01*
X177123960Y-78725364D01*
X177212750Y-78803284D01*
X177136776Y-78786309D01*
X176963646Y-78756141D01*
X176820559Y-78751766D01*
X176693320Y-78773085D01*
X176660623Y-78782975D01*
X176496638Y-78846226D01*
X176357208Y-78918115D01*
X176246568Y-78994611D01*
X176168956Y-79071687D01*
X176128607Y-79145315D01*
X176129758Y-79211465D01*
X176163114Y-79256053D01*
X176184868Y-79269045D01*
X176216911Y-79276040D01*
X176266628Y-79276539D01*
X176341404Y-79270048D01*
X176448622Y-79256068D01*
X176595669Y-79234105D01*
X176676341Y-79221556D01*
X176823700Y-79200941D01*
X176988539Y-79181678D01*
X177141139Y-79167154D01*
X177178327Y-79164349D01*
X177424006Y-79147292D01*
X177495649Y-79336488D01*
X177541856Y-79459525D01*
X177594163Y-79600323D01*
X177641259Y-79728430D01*
X177641319Y-79728594D01*
X177749136Y-80003638D01*
X177856190Y-80232720D01*
X177965925Y-80420967D01*
X178081788Y-80573504D01*
X178207222Y-80695459D01*
X178345673Y-80791957D01*
X178362433Y-80801568D01*
X178420137Y-80842226D01*
X178450619Y-80880040D01*
X178452141Y-80891242D01*
X178425694Y-80917169D01*
X178364034Y-80949736D01*
X178291073Y-80978116D01*
X178182197Y-81016191D01*
X178090586Y-81053273D01*
X178008591Y-81094776D01*
X177928562Y-81146117D01*
X177842849Y-81212710D01*
X177743802Y-81299970D01*
X177623772Y-81413313D01*
X177483988Y-81549446D01*
X177302569Y-81725039D01*
X177149259Y-81867104D01*
X177017589Y-81979959D01*
X176901091Y-82067920D01*
X176793300Y-82135306D01*
X176687746Y-82186434D01*
X176577962Y-82225621D01*
X176457482Y-82257185D01*
X176407456Y-82268098D01*
X176321375Y-82286710D01*
X176199599Y-82313842D01*
X176056336Y-82346288D01*
X175905794Y-82380849D01*
X175856159Y-82392353D01*
X175568448Y-82451952D01*
X175320501Y-82487938D01*
X175114099Y-82500126D01*
X174951026Y-82488330D01*
X174944025Y-82487105D01*
X174794267Y-82444677D01*
X174629768Y-82367713D01*
X174445501Y-82253514D01*
X174269848Y-82125363D01*
X174080053Y-81974804D01*
X173928207Y-81843762D01*
X173808155Y-81725634D01*
X173713738Y-81613816D01*
X173638800Y-81501705D01*
X173577185Y-81382695D01*
X173576920Y-81382117D01*
X173553298Y-81324552D01*
X173534423Y-81261809D01*
X173518838Y-81184896D01*
X173505085Y-81084819D01*
X173491707Y-80952584D01*
X173477246Y-80779199D01*
X173475428Y-80755956D01*
X173458341Y-80522029D01*
X173449958Y-80332826D01*
X173454237Y-80182032D01*
X173475135Y-80063329D01*
X173516613Y-79970401D01*
X173582629Y-79896931D01*
X173677141Y-79836603D01*
X173804107Y-79783100D01*
X173967488Y-79730105D01*
X174151719Y-79676834D01*
X174237131Y-79650674D01*
X174432270Y-79650674D01*
X174453721Y-79691716D01*
X174515716Y-79758817D01*
X174554187Y-79794021D01*
X174710351Y-79913073D01*
X174909704Y-80032927D01*
X175153538Y-80154128D01*
X175443148Y-80277223D01*
X175779827Y-80402756D01*
X176164870Y-80531273D01*
X176599571Y-80663320D01*
X176650710Y-80678152D01*
X176850142Y-80735680D01*
X177007783Y-80780947D01*
X177131066Y-80815994D01*
X177227425Y-80842862D01*
X177304295Y-80863592D01*
X177369109Y-80880222D01*
X177429303Y-80894795D01*
X177492310Y-80909350D01*
X177496522Y-80910309D01*
X177598802Y-80934136D01*
X177691727Y-80956763D01*
X177752829Y-80972657D01*
X177840671Y-80991118D01*
X177914677Y-80995839D01*
X177961368Y-80986749D01*
X177970690Y-80973817D01*
X177949367Y-80952559D01*
X177922559Y-80948186D01*
X177867771Y-80938538D01*
X177794954Y-80914788D01*
X177781706Y-80909444D01*
X177700371Y-80879530D01*
X177600279Y-80848021D01*
X177554307Y-80835207D01*
X177337187Y-80774583D01*
X177096274Y-80701353D01*
X176837599Y-80617803D01*
X176567197Y-80526219D01*
X176291099Y-80428888D01*
X176015339Y-80328095D01*
X175745948Y-80226128D01*
X175488960Y-80125271D01*
X175250407Y-80027813D01*
X175036323Y-79936038D01*
X174852739Y-79852233D01*
X174705688Y-79778684D01*
X174601203Y-79717678D01*
X174595638Y-79713936D01*
X174504782Y-79658782D01*
X174449808Y-79638696D01*
X174432270Y-79650674D01*
X174237131Y-79650674D01*
X174273262Y-79639608D01*
X174352352Y-79606890D01*
X174396863Y-79573437D01*
X174414666Y-79534009D01*
X174415540Y-79501194D01*
X174398003Y-79434753D01*
X174360527Y-79355685D01*
X174345188Y-79330727D01*
X174289486Y-79231799D01*
X174242482Y-79121909D01*
X174211558Y-79020326D01*
X174203354Y-78960531D01*
X174225271Y-78880298D01*
X174287199Y-78785895D01*
X174381885Y-78682998D01*
X174502076Y-78577282D01*
X174640519Y-78474424D01*
X174789961Y-78380099D01*
X174943149Y-78299983D01*
X175092831Y-78239753D01*
X175144521Y-78224014D01*
X175256620Y-78201041D01*
X175388790Y-78185137D01*
X175496511Y-78180073D01*
X175688696Y-78180073D01*
X175750047Y-78301819D01*
G37*
G36*
X172477065Y-76277390D02*
G01*
X172613723Y-76295800D01*
X172732289Y-76333291D01*
X172848768Y-76393982D01*
X172899858Y-76426673D01*
X173057722Y-76548899D01*
X173174043Y-76675995D01*
X173244609Y-76803143D01*
X173253830Y-76831549D01*
X173269967Y-76906427D01*
X173270652Y-76977015D01*
X173255150Y-77065303D01*
X173244532Y-77109384D01*
X173223074Y-77202687D01*
X173208187Y-77282204D01*
X173203384Y-77325839D01*
X173196295Y-77356539D01*
X173167249Y-77375497D01*
X173104579Y-77388093D01*
X173056008Y-77393790D01*
X172958526Y-77409604D01*
X172836853Y-77437023D01*
X172715113Y-77470523D01*
X172698997Y-77475523D01*
X172585783Y-77516906D01*
X172439932Y-77578566D01*
X172273034Y-77654860D01*
X172096676Y-77740140D01*
X171922448Y-77828764D01*
X171761936Y-77915085D01*
X171626729Y-77993458D01*
X171594233Y-78013687D01*
X171411198Y-78131354D01*
X171210351Y-78262851D01*
X170999117Y-78403121D01*
X170784922Y-78547107D01*
X170575191Y-78689752D01*
X170377350Y-78826000D01*
X170198825Y-78950794D01*
X170047041Y-79059077D01*
X169929423Y-79145793D01*
X169909842Y-79160726D01*
X169876668Y-79185674D01*
X169816488Y-79230498D01*
X169756058Y-79275323D01*
X169678073Y-79333100D01*
X169623088Y-79374316D01*
X169577616Y-79409573D01*
X169528166Y-79449475D01*
X169461250Y-79504623D01*
X169403295Y-79552594D01*
X169318327Y-79627944D01*
X169266532Y-79683736D01*
X169248338Y-79716390D01*
X169264175Y-79722329D01*
X169314470Y-79697975D01*
X169360701Y-79666620D01*
X172616850Y-79666620D01*
X172624898Y-79710938D01*
X172644635Y-79738418D01*
X172707693Y-79767084D01*
X172793268Y-79750809D01*
X172859516Y-79716587D01*
X172934836Y-79647168D01*
X173005581Y-79539036D01*
X173016326Y-79517949D01*
X173060922Y-79401936D01*
X173089218Y-79275632D01*
X173101634Y-79148550D01*
X173098590Y-79030202D01*
X173080506Y-78930101D01*
X173047803Y-78857758D01*
X173000902Y-78822686D01*
X172985523Y-78820840D01*
X172940169Y-78844307D01*
X172894740Y-78907076D01*
X172856375Y-78997697D01*
X172841705Y-79051500D01*
X172820639Y-79121339D01*
X172783970Y-79220568D01*
X172738114Y-79332282D01*
X172716159Y-79382195D01*
X172660781Y-79510716D01*
X172628244Y-79602702D01*
X172616850Y-79666620D01*
X169360701Y-79666620D01*
X169392203Y-79645254D01*
X169445933Y-79607359D01*
X169535952Y-79545671D01*
X169655713Y-79464549D01*
X169798665Y-79368354D01*
X169958259Y-79261443D01*
X170127948Y-79148178D01*
X170301181Y-79032918D01*
X170471409Y-78920021D01*
X170632084Y-78813848D01*
X170776657Y-78718758D01*
X170898578Y-78639110D01*
X170991299Y-78579265D01*
X171034954Y-78551718D01*
X171092269Y-78516448D01*
X171149706Y-78481709D01*
X171215895Y-78442421D01*
X171299468Y-78393505D01*
X171409056Y-78329883D01*
X171553292Y-78246476D01*
X171575836Y-78233453D01*
X171918597Y-78037889D01*
X172219848Y-77871113D01*
X172479469Y-77733187D01*
X172697342Y-77624171D01*
X172873347Y-77544126D01*
X173007364Y-77493111D01*
X173068529Y-77476257D01*
X173129960Y-77457257D01*
X173165674Y-77435456D01*
X173166497Y-77434260D01*
X173190784Y-77433604D01*
X173225767Y-77464768D01*
X173262618Y-77496238D01*
X173320351Y-77517650D01*
X173411594Y-77532953D01*
X173460998Y-77538317D01*
X173632221Y-77571637D01*
X173785229Y-77639154D01*
X173930245Y-77746570D01*
X174047942Y-77865699D01*
X174155184Y-77998520D01*
X174222240Y-78117913D01*
X174251591Y-78236660D01*
X174245719Y-78367540D01*
X174207107Y-78523334D01*
X174187297Y-78583279D01*
X174127157Y-78729619D01*
X174043512Y-78894700D01*
X173943577Y-79067288D01*
X173834568Y-79236149D01*
X173723699Y-79390050D01*
X173618187Y-79517756D01*
X173533487Y-79601247D01*
X173443961Y-79666123D01*
X173328651Y-79730220D01*
X173181703Y-79796118D01*
X172997264Y-79866400D01*
X172769480Y-79943644D01*
X172722504Y-79958781D01*
X172519839Y-80023444D01*
X172358474Y-80074051D01*
X172230936Y-80112327D01*
X172129754Y-80139996D01*
X172047455Y-80158783D01*
X171976567Y-80170413D01*
X171909617Y-80176610D01*
X171839135Y-80179098D01*
X171765814Y-80179594D01*
X171681298Y-80178688D01*
X171601847Y-80174841D01*
X171520248Y-80166722D01*
X171429292Y-80153000D01*
X171321766Y-80132345D01*
X171190460Y-80103428D01*
X171028164Y-80064917D01*
X170827665Y-80015483D01*
X170691578Y-79981419D01*
X170416977Y-79917821D01*
X170182674Y-79874920D01*
X169990199Y-79852882D01*
X169841082Y-79851877D01*
X169736853Y-79872073D01*
X169728158Y-79875611D01*
X169676271Y-79910298D01*
X169604564Y-79973814D01*
X169525231Y-80054954D01*
X169490645Y-80093824D01*
X169408793Y-80185154D01*
X169327040Y-80270339D01*
X169259054Y-80335330D01*
X169239762Y-80351737D01*
X169168121Y-80426034D01*
X169133507Y-80511346D01*
X169130612Y-80526886D01*
X169117007Y-80583466D01*
X169102633Y-80605363D01*
X169098043Y-80602172D01*
X169091821Y-80566683D01*
X169087194Y-80488567D01*
X169084109Y-80376430D01*
X169082512Y-80238880D01*
X169082351Y-80084523D01*
X169083574Y-79921966D01*
X169086126Y-79759817D01*
X169089955Y-79606683D01*
X169095007Y-79471171D01*
X169101231Y-79361887D01*
X169106008Y-79307823D01*
X169154204Y-79034553D01*
X169238148Y-78746028D01*
X169353098Y-78458432D01*
X169357973Y-78447828D01*
X169405953Y-78341126D01*
X169448672Y-78241067D01*
X169478977Y-78164574D01*
X169485221Y-78146822D01*
X169515666Y-78084319D01*
X169567308Y-78039622D01*
X169635415Y-78006239D01*
X169845754Y-77932286D01*
X170093141Y-77873330D01*
X170381054Y-77828784D01*
X170712965Y-77798061D01*
X170941097Y-77785750D01*
X171117759Y-77775287D01*
X171249634Y-77759349D01*
X171343065Y-77736102D01*
X171404398Y-77703711D01*
X171439977Y-77660343D01*
X171448571Y-77639030D01*
X171444934Y-77568726D01*
X171393118Y-77494017D01*
X171295677Y-77417835D01*
X171216507Y-77372707D01*
X171146188Y-77338688D01*
X171083292Y-77315900D01*
X171013778Y-77301640D01*
X170923612Y-77293208D01*
X170798754Y-77287902D01*
X170771451Y-77287068D01*
X170616013Y-77285654D01*
X170482431Y-77293387D01*
X170355867Y-77313036D01*
X170221484Y-77347367D01*
X170064448Y-77399146D01*
X169953597Y-77439584D01*
X169862063Y-77471878D01*
X169790457Y-77493665D01*
X169750884Y-77501378D01*
X169747089Y-77500434D01*
X169746096Y-77467008D01*
X169767491Y-77403896D01*
X169804686Y-77323697D01*
X169851094Y-77239013D01*
X169900128Y-77162442D01*
X169945199Y-77106585D01*
X169959864Y-77093452D01*
X170016909Y-77054998D01*
X170096261Y-77007651D01*
X170184587Y-76958590D01*
X170268555Y-76914997D01*
X170334832Y-76884052D01*
X170369364Y-76872908D01*
X170400919Y-76863082D01*
X170462358Y-76837972D01*
X170506052Y-76818593D01*
X170881456Y-76655864D01*
X171232130Y-76520656D01*
X171554974Y-76413910D01*
X171846885Y-76336563D01*
X172104762Y-76289553D01*
X172306310Y-76273942D01*
X172477065Y-76277390D01*
G37*
G36*
X176787689Y-84729992D02*
G01*
X176805670Y-84768988D01*
X176832350Y-84852428D01*
X176866381Y-84974490D01*
X176906415Y-85129350D01*
X176951105Y-85311186D01*
X176999104Y-85514174D01*
X177049064Y-85732492D01*
X177099637Y-85960316D01*
X177149476Y-86191825D01*
X177197234Y-86421194D01*
X177241562Y-86642601D01*
X177281114Y-86850223D01*
X177291552Y-86907318D01*
X177320886Y-87068857D01*
X177348907Y-87221962D01*
X177373655Y-87356003D01*
X177393168Y-87460354D01*
X177405098Y-87522454D01*
X177419102Y-87601608D01*
X177436920Y-87714760D01*
X177455973Y-87845050D01*
X177469355Y-87942624D01*
X177485660Y-88059116D01*
X177500746Y-88155668D01*
X177512855Y-88221688D01*
X177519847Y-88246351D01*
X177548271Y-88248080D01*
X177578642Y-88202556D01*
X177608491Y-88113600D01*
X177610404Y-88106212D01*
X177631640Y-88024179D01*
X177660920Y-87912699D01*
X177692967Y-87791826D01*
X177703295Y-87753130D01*
X177737601Y-87620386D01*
X177772638Y-87477563D01*
X177801828Y-87351611D01*
X177806514Y-87330224D01*
X177833201Y-87208753D01*
X177861888Y-87081313D01*
X177884329Y-86984210D01*
X177918190Y-86828510D01*
X177954030Y-86643340D01*
X177987945Y-86450151D01*
X178016032Y-86270395D01*
X178022003Y-86227728D01*
X178038358Y-86117948D01*
X178056910Y-86008957D01*
X178069209Y-85945790D01*
X178080944Y-85878913D01*
X178096416Y-85773717D01*
X178113887Y-85642854D01*
X178131623Y-85498974D01*
X178137744Y-85446370D01*
X178153894Y-85309119D01*
X178168951Y-85188257D01*
X178181608Y-85093762D01*
X178190559Y-85035615D01*
X178193087Y-85023769D01*
X178210584Y-85020045D01*
X178245292Y-85060739D01*
X178278012Y-85113476D01*
X178326064Y-85197026D01*
X178369313Y-85272308D01*
X178388298Y-85305401D01*
X178399967Y-85335493D01*
X178406855Y-85379987D01*
X178408557Y-85443122D01*
X178404668Y-85529136D01*
X178394784Y-85642270D01*
X178378499Y-85786762D01*
X178355410Y-85966851D01*
X178325111Y-86186776D01*
X178287197Y-86450776D01*
X178263502Y-86612565D01*
X178232785Y-86801931D01*
X178191277Y-87029154D01*
X178141398Y-87282561D01*
X178085565Y-87550481D01*
X178026198Y-87821239D01*
X177965716Y-88083163D01*
X177918844Y-88275737D01*
X177890957Y-88406019D01*
X177884216Y-88490184D01*
X177898832Y-88528911D01*
X177935017Y-88522874D01*
X177983525Y-88482420D01*
X178003118Y-88460404D01*
X178021168Y-88432560D01*
X178039165Y-88393612D01*
X178058602Y-88338283D01*
X178080968Y-88261295D01*
X178107755Y-88157373D01*
X178140453Y-88021239D01*
X178180553Y-87847617D01*
X178229546Y-87631229D01*
X178251124Y-87535270D01*
X178288291Y-87367045D01*
X178329288Y-87177052D01*
X178368701Y-86990596D01*
X178396453Y-86856057D01*
X178425019Y-86715207D01*
X178460306Y-86541119D01*
X178498869Y-86350797D01*
X178537262Y-86161246D01*
X178560051Y-86048690D01*
X178595285Y-85877347D01*
X178623451Y-85751028D01*
X178647061Y-85664403D01*
X178668626Y-85612137D01*
X178690658Y-85588897D01*
X178715666Y-85589352D01*
X178746163Y-85608167D01*
X178761624Y-85620603D01*
X178779900Y-85657090D01*
X178784441Y-85727703D01*
X178774966Y-85836537D01*
X178751192Y-85987688D01*
X178727775Y-86111382D01*
X178705614Y-86225645D01*
X178679514Y-86363819D01*
X178654484Y-86499339D01*
X178650215Y-86522858D01*
X178628357Y-86641921D01*
X178600469Y-86791150D01*
X178568529Y-86960231D01*
X178534514Y-87138854D01*
X178500400Y-87316707D01*
X178468163Y-87483478D01*
X178439780Y-87628856D01*
X178417228Y-87742528D01*
X178404568Y-87804392D01*
X178379584Y-87945171D01*
X178373957Y-88038811D01*
X178387677Y-88085633D01*
X178395097Y-88090438D01*
X178424925Y-88077510D01*
X178481128Y-88033628D01*
X178556232Y-87966335D01*
X178642761Y-87883172D01*
X178733241Y-87791680D01*
X178820194Y-87699400D01*
X178896147Y-87613874D01*
X178953624Y-87542644D01*
X178983400Y-87496945D01*
X179018344Y-87429686D01*
X179070162Y-87333504D01*
X179130379Y-87224029D01*
X179164046Y-87163746D01*
X179231894Y-87042676D01*
X179302682Y-86915842D01*
X179364804Y-86804051D01*
X179385654Y-86766349D01*
X179436230Y-86674991D01*
X179502558Y-86555598D01*
X179575355Y-86424867D01*
X179634024Y-86319733D01*
X179693566Y-86211767D01*
X179742679Y-86120061D01*
X179776551Y-86053790D01*
X179790372Y-86022134D01*
X179790468Y-86021315D01*
X179810747Y-85997323D01*
X179828863Y-85988180D01*
X179872248Y-85996176D01*
X179913747Y-86048634D01*
X179949258Y-86138803D01*
X179967563Y-86216444D01*
X179976920Y-86275394D01*
X179977070Y-86324205D01*
X179964394Y-86375582D01*
X179935268Y-86442235D01*
X179886070Y-86536869D01*
X179865133Y-86575810D01*
X179794182Y-86713357D01*
X179752487Y-86809410D01*
X179740350Y-86864778D01*
X179758074Y-86880269D01*
X179805961Y-86856691D01*
X179884312Y-86794852D01*
X179931437Y-86753083D01*
X179988794Y-86702305D01*
X180080724Y-86622544D01*
X180202553Y-86517792D01*
X180349605Y-86392043D01*
X180517206Y-86249288D01*
X180700682Y-86093520D01*
X180895358Y-85928732D01*
X181007925Y-85833663D01*
X181100585Y-85757300D01*
X181180344Y-85694969D01*
X181238460Y-85653277D01*
X181265741Y-85638801D01*
X181306733Y-85652555D01*
X181338830Y-85672199D01*
X181355327Y-85689231D01*
X181355127Y-85710799D01*
X181333265Y-85743477D01*
X181284772Y-85793837D01*
X181204682Y-85868453D01*
X181159679Y-85909283D01*
X181043174Y-86014986D01*
X180928344Y-86120064D01*
X180809028Y-86230262D01*
X180679067Y-86351326D01*
X180532299Y-86488999D01*
X180362565Y-86649028D01*
X180163704Y-86837157D01*
X180101745Y-86895858D01*
X179963474Y-87026727D01*
X179825449Y-87157061D01*
X179696038Y-87278980D01*
X179583609Y-87384607D01*
X179496529Y-87466060D01*
X179469955Y-87490772D01*
X179392750Y-87565301D01*
X179328470Y-87636124D01*
X179269385Y-87714003D01*
X179207766Y-87809698D01*
X179135882Y-87933972D01*
X179083360Y-88029016D01*
X179012468Y-88159318D01*
X178947589Y-88279915D01*
X178893976Y-88380938D01*
X178856885Y-88452520D01*
X178845210Y-88476238D01*
X178792395Y-88546717D01*
X178741113Y-88571602D01*
X178692545Y-88576149D01*
X178604694Y-88579436D01*
X178485752Y-88581537D01*
X178343911Y-88582527D01*
X178187361Y-88582479D01*
X178024295Y-88581470D01*
X177862902Y-88579573D01*
X177711376Y-88576864D01*
X177577907Y-88573416D01*
X177470686Y-88569304D01*
X177397905Y-88564603D01*
X177367756Y-88559387D01*
X177367503Y-88559096D01*
X177357358Y-88523102D01*
X177346624Y-88456599D01*
X177343232Y-88428061D01*
X177311801Y-88144712D01*
X177278156Y-87858229D01*
X177243487Y-87577798D01*
X177208988Y-87312606D01*
X177175849Y-87071840D01*
X177145263Y-86864687D01*
X177120991Y-86715088D01*
X177096177Y-86571284D01*
X177070235Y-86420785D01*
X177046888Y-86285181D01*
X177034871Y-86215290D01*
X177006136Y-86056996D01*
X176970408Y-85874016D01*
X176930103Y-85677506D01*
X176887636Y-85478621D01*
X176845424Y-85288518D01*
X176805882Y-85118352D01*
X176771426Y-84979279D01*
X176750819Y-84903615D01*
X176728325Y-84811092D01*
X176726761Y-84755676D01*
X176737854Y-84733837D01*
X176774282Y-84720764D01*
X176787689Y-84729992D01*
G37*
G36*
X176492971Y-72158477D02*
G01*
X176690522Y-72190860D01*
X176745746Y-72206361D01*
X176943185Y-72289095D01*
X177102877Y-72401627D01*
X177226425Y-72546365D01*
X177315433Y-72725716D01*
X177371505Y-72942087D01*
X177395632Y-73181788D01*
X177399984Y-73304416D01*
X177399930Y-73386636D01*
X177394004Y-73439215D01*
X177380745Y-73472921D01*
X177358688Y-73498522D01*
X177351728Y-73504829D01*
X177282619Y-73581396D01*
X177200017Y-73697890D01*
X177108303Y-73846195D01*
X177011856Y-74018194D01*
X176915054Y-74205768D01*
X176822277Y-74400801D01*
X176737904Y-74595176D01*
X176672217Y-74764374D01*
X176572966Y-75046526D01*
X176468938Y-75357662D01*
X176363161Y-75687667D01*
X176258663Y-76026424D01*
X176158470Y-76363818D01*
X176065610Y-76689733D01*
X175983110Y-76994054D01*
X175913998Y-77266663D01*
X175880153Y-77411078D01*
X175857796Y-77507535D01*
X175838413Y-77586180D01*
X175825708Y-77632067D01*
X175824552Y-77635346D01*
X175832627Y-77663862D01*
X175847009Y-77667264D01*
X175870674Y-77642714D01*
X175903351Y-77571795D01*
X175943450Y-77458290D01*
X175968140Y-77378919D01*
X176006860Y-77249731D01*
X176044369Y-77124623D01*
X176075808Y-77019797D01*
X176092967Y-76962616D01*
X176170245Y-76714308D01*
X176261461Y-76436471D01*
X176363536Y-76137443D01*
X176473396Y-75825564D01*
X176587963Y-75509172D01*
X176704160Y-75196609D01*
X176818912Y-74896212D01*
X176929141Y-74616320D01*
X177031772Y-74365274D01*
X177123727Y-74151412D01*
X177158237Y-74075092D01*
X177190058Y-74005621D01*
X177808362Y-74005621D01*
X177814880Y-74057547D01*
X177840288Y-74104906D01*
X177893364Y-74160500D01*
X177946145Y-74206514D01*
X178040953Y-74289722D01*
X178141702Y-74383144D01*
X178204407Y-74444402D01*
X178296547Y-74525796D01*
X178368130Y-74561755D01*
X178421433Y-74552739D01*
X178458734Y-74499207D01*
X178460008Y-74495930D01*
X178474365Y-74391888D01*
X178450809Y-74270410D01*
X178393769Y-74142956D01*
X178307674Y-74020982D01*
X178254940Y-73965464D01*
X178195670Y-73918648D01*
X178130236Y-73893381D01*
X178037006Y-73881602D01*
X178028385Y-73881043D01*
X177919994Y-73880094D01*
X177852802Y-73896812D01*
X177818399Y-73935960D01*
X177808375Y-74002300D01*
X177808362Y-74005621D01*
X177190058Y-74005621D01*
X177200111Y-73983673D01*
X177233804Y-73909153D01*
X177253380Y-73864687D01*
X177255381Y-73859788D01*
X177285715Y-73796715D01*
X177332311Y-73716533D01*
X177386775Y-73631789D01*
X177440714Y-73555028D01*
X177485733Y-73498797D01*
X177512178Y-73475942D01*
X177546598Y-73449782D01*
X177600250Y-73392187D01*
X177663344Y-73313978D01*
X177684725Y-73285273D01*
X177794250Y-73152481D01*
X177916967Y-73032340D01*
X178042015Y-72933874D01*
X178158533Y-72866104D01*
X178214181Y-72845421D01*
X178293773Y-72833003D01*
X178409866Y-72827303D01*
X178548067Y-72828910D01*
X178581135Y-72830359D01*
X178761946Y-72848086D01*
X178918737Y-72884829D01*
X179056715Y-72945042D01*
X179181083Y-73033175D01*
X179297049Y-73153682D01*
X179409817Y-73311014D01*
X179524593Y-73509624D01*
X179636684Y-73733152D01*
X179759470Y-74024996D01*
X179838957Y-74294816D01*
X179874860Y-74541310D01*
X179866895Y-74763178D01*
X179864805Y-74777015D01*
X179813210Y-75049271D01*
X179746654Y-75317581D01*
X179668504Y-75571631D01*
X179582125Y-75801108D01*
X179490884Y-75995700D01*
X179436348Y-76089635D01*
X179370753Y-76188880D01*
X179305924Y-76277347D01*
X179237584Y-76357731D01*
X179161455Y-76432723D01*
X179073259Y-76505016D01*
X178968719Y-76577305D01*
X178843556Y-76652282D01*
X178693495Y-76732639D01*
X178514256Y-76821070D01*
X178301563Y-76920268D01*
X178051137Y-77032925D01*
X177758701Y-77161735D01*
X177675937Y-77197908D01*
X177586533Y-77238286D01*
X177462813Y-77296041D01*
X177316339Y-77365680D01*
X177158670Y-77441708D01*
X177009540Y-77514606D01*
X176789790Y-77626389D01*
X176610858Y-77727102D01*
X176465385Y-77823195D01*
X176346014Y-77921116D01*
X176245387Y-78027315D01*
X176156146Y-78148240D01*
X176070935Y-78290342D01*
X176023716Y-78378711D01*
X175979758Y-78457908D01*
X175942439Y-78515173D01*
X175919431Y-78538809D01*
X175918626Y-78538902D01*
X175899378Y-78516545D01*
X175876649Y-78460184D01*
X175867799Y-78429972D01*
X175835401Y-78331091D01*
X175789727Y-78237411D01*
X175726493Y-78144676D01*
X175641413Y-78048631D01*
X175530204Y-77945020D01*
X175388581Y-77829587D01*
X175212258Y-77698078D01*
X174996951Y-77546237D01*
X174935004Y-77503553D01*
X174696389Y-77326766D01*
X174501222Y-77151710D01*
X174342602Y-76970479D01*
X174213630Y-76775165D01*
X174107406Y-76557860D01*
X174105169Y-76552525D01*
X174054682Y-76428581D01*
X174042234Y-76392448D01*
X174384351Y-76392448D01*
X174398682Y-76491889D01*
X174408928Y-76515764D01*
X174455481Y-76557002D01*
X174520040Y-76559982D01*
X174587216Y-76525336D01*
X174605605Y-76507671D01*
X174654784Y-76443065D01*
X174700069Y-76367444D01*
X174700802Y-76366000D01*
X174734001Y-76316751D01*
X174795260Y-76240573D01*
X174876550Y-76146945D01*
X174969842Y-76045343D01*
X174993928Y-76019986D01*
X175088577Y-75919774D01*
X175173418Y-75827588D01*
X175240518Y-75752219D01*
X175281942Y-75702456D01*
X175287659Y-75694602D01*
X175319404Y-75619576D01*
X175329541Y-75532993D01*
X175317889Y-75455045D01*
X175290214Y-75410241D01*
X175228903Y-75389908D01*
X175138924Y-75397972D01*
X175030831Y-75429819D01*
X174915174Y-75480837D01*
X174802506Y-75546414D01*
X174703377Y-75621936D01*
X174631836Y-75698054D01*
X174549735Y-75826733D01*
X174480952Y-75971459D01*
X174428470Y-76121285D01*
X174395276Y-76265264D01*
X174384351Y-76392448D01*
X174042234Y-76392448D01*
X174024313Y-76340427D01*
X174013289Y-76277039D01*
X174020838Y-76227394D01*
X174046188Y-76180470D01*
X174076319Y-76140557D01*
X174279966Y-75909287D01*
X174515898Y-75688732D01*
X174787963Y-75476105D01*
X175100010Y-75268617D01*
X175455886Y-75063482D01*
X175820695Y-74876682D01*
X175998088Y-74781082D01*
X176130321Y-74689527D01*
X176216317Y-74603323D01*
X176254996Y-74523775D01*
X176245279Y-74452189D01*
X176208581Y-74407061D01*
X176139840Y-74366118D01*
X176039936Y-74327983D01*
X175928861Y-74298793D01*
X175826604Y-74284683D01*
X175808375Y-74284210D01*
X175708604Y-74294341D01*
X175578592Y-74321750D01*
X175434513Y-74361960D01*
X175292541Y-74410493D01*
X175176946Y-74458998D01*
X175105924Y-74495005D01*
X175011810Y-74546009D01*
X174904391Y-74606309D01*
X174793453Y-74670203D01*
X174688780Y-74731992D01*
X174600159Y-74785973D01*
X174537375Y-74826447D01*
X174510549Y-74847227D01*
X174483655Y-74870221D01*
X174428269Y-74911050D01*
X174382395Y-74943027D01*
X174185371Y-75094602D01*
X174020185Y-75256757D01*
X173894065Y-75421840D01*
X173842143Y-75514910D01*
X173754672Y-75698066D01*
X173719336Y-75612682D01*
X173646822Y-75413914D01*
X173601146Y-75226489D01*
X173583110Y-75042697D01*
X173593514Y-74854828D01*
X173633156Y-74655173D01*
X173702839Y-74436022D01*
X173803360Y-74189666D01*
X173885499Y-74011540D01*
X174017000Y-73737013D01*
X174129631Y-73504655D01*
X174226016Y-73310095D01*
X174308776Y-73148962D01*
X174380534Y-73016887D01*
X174443912Y-72909499D01*
X174501532Y-72822427D01*
X174556016Y-72751302D01*
X174609986Y-72691753D01*
X174666065Y-72639410D01*
X174726875Y-72589902D01*
X174748303Y-72573536D01*
X174849386Y-72500495D01*
X174939112Y-72445394D01*
X175034860Y-72399324D01*
X175154008Y-72353374D01*
X175228208Y-72327517D01*
X175484551Y-72252260D01*
X175749262Y-72196924D01*
X176012277Y-72162312D01*
X176263535Y-72149229D01*
X176492971Y-72158477D01*
G37*
G36*
X183218929Y-73704886D02*
G01*
X183382831Y-73733121D01*
X183568840Y-73775950D01*
X183764748Y-73829911D01*
X183958344Y-73891543D01*
X184137419Y-73957385D01*
X184289763Y-74023976D01*
X184337883Y-74048636D01*
X184446275Y-74118649D01*
X184565740Y-74213802D01*
X184681534Y-74320703D01*
X184778917Y-74425963D01*
X184832205Y-74497666D01*
X184868788Y-74558971D01*
X184916630Y-74643695D01*
X184969907Y-74740926D01*
X185022799Y-74839754D01*
X185069480Y-74929268D01*
X185104129Y-74998554D01*
X185120922Y-75036704D01*
X185121649Y-75040039D01*
X185097493Y-75044588D01*
X185030921Y-75048449D01*
X184930778Y-75051324D01*
X184805907Y-75052913D01*
X184735840Y-75053130D01*
X184483969Y-75059058D01*
X184273802Y-75077746D01*
X184097067Y-75110549D01*
X183945492Y-75158826D01*
X183861931Y-75196411D01*
X183759021Y-75261679D01*
X183675955Y-75339837D01*
X183617248Y-75422595D01*
X183587414Y-75501664D01*
X183590966Y-75568756D01*
X183632419Y-75615581D01*
X183633384Y-75616104D01*
X183680575Y-75630913D01*
X183756807Y-75638674D01*
X183866702Y-75639320D01*
X184014884Y-75632780D01*
X184205976Y-75618987D01*
X184365544Y-75605178D01*
X184626115Y-75589029D01*
X184880881Y-75587378D01*
X185118382Y-75599690D01*
X185327158Y-75625430D01*
X185470818Y-75656722D01*
X185543755Y-75684714D01*
X185611544Y-75729671D01*
X185680190Y-75798089D01*
X185755700Y-75896464D01*
X185844077Y-76031291D01*
X185896850Y-76117528D01*
X185981205Y-76286145D01*
X186056583Y-76491372D01*
X186119365Y-76718837D01*
X186165929Y-76954169D01*
X186192657Y-77182998D01*
X186197667Y-77311680D01*
X186203856Y-77412713D01*
X186220046Y-77547096D01*
X186243611Y-77698495D01*
X186271926Y-77850580D01*
X186302365Y-77987018D01*
X186312554Y-78026289D01*
X186364307Y-78224462D01*
X186399911Y-78379391D01*
X186420399Y-78496130D01*
X186426800Y-78579732D01*
X186426720Y-78585826D01*
X186424763Y-78632533D01*
X186418486Y-78648168D01*
X186403221Y-78628370D01*
X186374301Y-78568779D01*
X186348925Y-78513148D01*
X186272933Y-78383457D01*
X186173462Y-78281704D01*
X186047247Y-78207174D01*
X185891024Y-78159153D01*
X185701530Y-78136925D01*
X185475502Y-78139776D01*
X185209675Y-78166991D01*
X184955049Y-78207829D01*
X184739918Y-78248548D01*
X184571196Y-78284350D01*
X184450508Y-78314870D01*
X184391174Y-78334607D01*
X184293792Y-78374327D01*
X184220547Y-78404636D01*
X184148032Y-78435279D01*
X184096421Y-78457330D01*
X183864283Y-78552332D01*
X183665815Y-78623501D01*
X183491159Y-78674082D01*
X183343367Y-78705165D01*
X183243116Y-78720419D01*
X183144890Y-78730677D01*
X183038364Y-78736197D01*
X182913215Y-78737239D01*
X182759121Y-78734063D01*
X182565757Y-78726929D01*
X182532950Y-78725543D01*
X182274394Y-78709566D01*
X182015688Y-78684498D01*
X181769088Y-78651997D01*
X181546853Y-78613722D01*
X181361241Y-78571330D01*
X181331033Y-78562920D01*
X181145922Y-78506096D01*
X180985107Y-78447810D01*
X180832208Y-78380885D01*
X180670847Y-78298146D01*
X180484647Y-78192417D01*
X180482496Y-78191156D01*
X180355578Y-78117697D01*
X180223557Y-78042896D01*
X180104294Y-77976795D01*
X180033959Y-77938969D01*
X179887642Y-77856669D01*
X179779138Y-77780716D01*
X179697661Y-77701148D01*
X179632428Y-77608007D01*
X179590812Y-77529724D01*
X179529385Y-77417527D01*
X179452384Y-77295494D01*
X179386441Y-77203337D01*
X179286047Y-77072664D01*
X179212666Y-76972832D01*
X179160663Y-76895162D01*
X179124403Y-76830976D01*
X179098252Y-76771594D01*
X179088269Y-76744096D01*
X179050191Y-76633574D01*
X179192917Y-76490527D01*
X179338219Y-76328284D01*
X179466125Y-76147565D01*
X179583411Y-75937542D01*
X179696855Y-75687390D01*
X179699100Y-75681980D01*
X179732222Y-75614182D01*
X179764014Y-75567846D01*
X179772239Y-75560627D01*
X179809506Y-75552461D01*
X179885882Y-75545864D01*
X179989222Y-75541637D01*
X180076982Y-75540506D01*
X180235105Y-75535042D01*
X180345623Y-75517529D01*
X180411287Y-75485500D01*
X180416820Y-75473991D01*
X180684922Y-75473991D01*
X180724749Y-75493910D01*
X180809263Y-75517289D01*
X180845231Y-75525553D01*
X180962417Y-75554496D01*
X181091026Y-75592149D01*
X181235332Y-75640193D01*
X181399610Y-75700307D01*
X181588133Y-75774173D01*
X181805178Y-75863472D01*
X182055017Y-75969883D01*
X182341927Y-76095087D01*
X182670181Y-76240766D01*
X182712365Y-76259618D01*
X182904320Y-76348178D01*
X183132397Y-76457916D01*
X183388257Y-76584497D01*
X183663559Y-76723585D01*
X183949966Y-76870846D01*
X184239137Y-77021943D01*
X184522734Y-77172540D01*
X184792417Y-77318304D01*
X185039847Y-77454898D01*
X185256685Y-77577986D01*
X185326694Y-77618769D01*
X185426345Y-77675765D01*
X185489154Y-77707007D01*
X185521305Y-77714607D01*
X185528983Y-77700675D01*
X185525702Y-77686682D01*
X185500782Y-77658370D01*
X185443545Y-77611202D01*
X185364867Y-77553927D01*
X185337744Y-77535436D01*
X185274073Y-77494019D01*
X185182049Y-77435889D01*
X185069027Y-77365522D01*
X184942361Y-77287394D01*
X184809405Y-77205981D01*
X184677514Y-77125762D01*
X184554041Y-77051211D01*
X184446343Y-76986805D01*
X184361771Y-76937021D01*
X184307682Y-76906336D01*
X184291403Y-76898539D01*
X184267215Y-76886550D01*
X184208415Y-76854185D01*
X184124698Y-76806844D01*
X184055246Y-76766984D01*
X183785784Y-76614468D01*
X183503533Y-76460180D01*
X183216632Y-76308235D01*
X182933224Y-76162750D01*
X182661448Y-76027839D01*
X182548777Y-75974088D01*
X184147687Y-75974088D01*
X184176552Y-76038134D01*
X184210420Y-76067021D01*
X184233018Y-76080469D01*
X184260145Y-76092263D01*
X184297726Y-76103430D01*
X184351686Y-76114995D01*
X184427950Y-76127984D01*
X184532444Y-76143425D01*
X184671093Y-76162342D01*
X184849820Y-76185763D01*
X185030466Y-76209052D01*
X185178758Y-76228795D01*
X185313312Y-76247992D01*
X185424138Y-76265120D01*
X185501249Y-76278654D01*
X185530264Y-76285312D01*
X185595345Y-76296625D01*
X185683857Y-76301501D01*
X185723969Y-76300999D01*
X185800127Y-76296174D01*
X185839087Y-76283256D01*
X185854908Y-76253448D01*
X185859929Y-76215937D01*
X185857224Y-76158500D01*
X185829313Y-76109867D01*
X185772364Y-76057043D01*
X185595616Y-75937497D01*
X185390353Y-75841940D01*
X185206296Y-75786396D01*
X185083016Y-75765797D01*
X184936594Y-75752079D01*
X184779704Y-75745276D01*
X184625018Y-75745425D01*
X184485211Y-75752561D01*
X184372956Y-75766720D01*
X184309678Y-75783877D01*
X184217206Y-75838527D01*
X184162223Y-75904742D01*
X184147687Y-75974088D01*
X182548777Y-75974088D01*
X182409446Y-75907619D01*
X182185359Y-75806206D01*
X182007521Y-75731733D01*
X181803355Y-75655841D01*
X181598055Y-75588571D01*
X181398125Y-75531281D01*
X181210070Y-75485331D01*
X181040395Y-75452080D01*
X180895605Y-75432886D01*
X180782205Y-75429108D01*
X180706700Y-75442106D01*
X180685049Y-75455461D01*
X180684922Y-75473991D01*
X180416820Y-75473991D01*
X180434852Y-75436484D01*
X180419070Y-75368014D01*
X180367998Y-75279537D01*
X180267496Y-75106581D01*
X180193979Y-74927572D01*
X180150665Y-74753761D01*
X180140772Y-74596398D01*
X180150856Y-74520429D01*
X180181044Y-74428354D01*
X180231417Y-74349678D01*
X180309566Y-74277047D01*
X180423083Y-74203105D01*
X180546573Y-74136996D01*
X180683065Y-74070876D01*
X180802130Y-74021636D01*
X180917058Y-73986008D01*
X181041135Y-73960722D01*
X181187650Y-73942511D01*
X181369891Y-73928107D01*
X181405201Y-73925813D01*
X181554522Y-73915333D01*
X181691472Y-73903143D01*
X181826244Y-73887803D01*
X181969031Y-73867875D01*
X182130026Y-73841919D01*
X182319422Y-73808496D01*
X182547412Y-73766166D01*
X182581762Y-73759680D01*
X182725689Y-73734831D01*
X182868079Y-73714370D01*
X182993077Y-73700326D01*
X183084828Y-73694728D01*
X183089345Y-73694705D01*
X183218929Y-73704886D01*
G37*
G36*
X77269714Y-88637490D02*
G01*
X77647355Y-88637820D01*
X77979298Y-88638415D01*
X78268327Y-88639313D01*
X78517224Y-88640553D01*
X78728769Y-88642171D01*
X78905746Y-88644206D01*
X79050936Y-88646695D01*
X79167121Y-88649676D01*
X79257084Y-88653186D01*
X79323606Y-88657264D01*
X79369469Y-88661946D01*
X79397456Y-88667272D01*
X79409026Y-88672151D01*
X79423960Y-88685786D01*
X79435106Y-88706201D01*
X79442768Y-88739796D01*
X79447256Y-88792974D01*
X79448873Y-88872137D01*
X79447928Y-88983686D01*
X79444726Y-89134025D01*
X79439909Y-89317306D01*
X79410325Y-89983672D01*
X79358405Y-90611724D01*
X79283044Y-91209806D01*
X79183135Y-91786260D01*
X79057574Y-92349431D01*
X79017211Y-92507621D01*
X78955946Y-92725738D01*
X78882362Y-92962852D01*
X78801762Y-93203388D01*
X78719446Y-93431773D01*
X78640714Y-93632430D01*
X78609148Y-93706611D01*
X78562726Y-93810359D01*
X78528489Y-93876556D01*
X78498488Y-93914793D01*
X78464775Y-93934662D01*
X78419401Y-93945754D01*
X78409487Y-93947539D01*
X78358646Y-93952039D01*
X78264032Y-93955917D01*
X78131097Y-93959185D01*
X77965294Y-93961853D01*
X77772076Y-93963935D01*
X77556895Y-93965441D01*
X77325204Y-93966382D01*
X77082456Y-93966772D01*
X76834102Y-93966621D01*
X76585597Y-93965940D01*
X76342392Y-93964743D01*
X76109941Y-93963039D01*
X75893695Y-93960841D01*
X75699108Y-93958160D01*
X75531632Y-93955008D01*
X75396720Y-93951397D01*
X75299824Y-93947338D01*
X75246397Y-93942843D01*
X75238157Y-93940785D01*
X75193077Y-93893508D01*
X75138543Y-93801432D01*
X75076395Y-93669758D01*
X75008473Y-93503687D01*
X74936618Y-93308423D01*
X74862670Y-93089166D01*
X74788468Y-92851119D01*
X74715853Y-92599483D01*
X74646664Y-92339461D01*
X74590662Y-92110345D01*
X74557020Y-91965125D01*
X74531534Y-91849997D01*
X74511042Y-91748426D01*
X74492381Y-91643876D01*
X74472389Y-91519813D01*
X74450958Y-91379871D01*
X74428887Y-91234477D01*
X74406956Y-91090488D01*
X74387626Y-90964024D01*
X74373355Y-90871206D01*
X74372745Y-90867258D01*
X74354310Y-90726919D01*
X74335491Y-90545094D01*
X74316992Y-90331548D01*
X74299514Y-90096045D01*
X74283762Y-89848349D01*
X74270439Y-89598224D01*
X74260247Y-89355435D01*
X74257211Y-89262794D01*
X74252159Y-89080777D01*
X74249520Y-88943113D01*
X74249603Y-88842935D01*
X74252717Y-88773377D01*
X74259168Y-88727574D01*
X74269267Y-88698660D01*
X74283321Y-88679770D01*
X74283394Y-88679696D01*
X74293491Y-88672688D01*
X74310917Y-88666494D01*
X74338674Y-88661063D01*
X74379761Y-88656346D01*
X74437178Y-88652293D01*
X74513926Y-88648856D01*
X74613005Y-88645984D01*
X74737414Y-88643627D01*
X74890154Y-88641737D01*
X75074225Y-88640263D01*
X75292627Y-88639157D01*
X75548359Y-88638367D01*
X75844423Y-88637846D01*
X76183817Y-88637543D01*
X76569543Y-88637409D01*
X76843594Y-88637389D01*
X77269714Y-88637490D01*
G37*
G36*
X74868679Y-85108883D02*
G01*
X74894126Y-85162677D01*
X74919855Y-85258887D01*
X74935360Y-85327666D01*
X74961584Y-85445227D01*
X74986429Y-85553958D01*
X75006095Y-85637333D01*
X75012767Y-85664230D01*
X75025882Y-85721246D01*
X75044284Y-85811411D01*
X75068641Y-85938271D01*
X75099622Y-86105368D01*
X75137896Y-86316246D01*
X75179501Y-86548489D01*
X75200609Y-86670523D01*
X75225073Y-86817487D01*
X75248627Y-86963618D01*
X75255873Y-87009841D01*
X75274640Y-87129721D01*
X75298869Y-87283094D01*
X75325846Y-87452850D01*
X75352855Y-87621876D01*
X75361580Y-87676238D01*
X75404175Y-87946613D01*
X75437278Y-88168505D01*
X75460833Y-88341485D01*
X75474782Y-88465124D01*
X75479067Y-88538993D01*
X75478458Y-88551404D01*
X75453880Y-88566048D01*
X75394525Y-88575540D01*
X75316653Y-88579514D01*
X75236523Y-88577601D01*
X75170397Y-88569434D01*
X75139893Y-88559057D01*
X75123987Y-88526097D01*
X75107765Y-88453351D01*
X75093503Y-88352230D01*
X75088327Y-88300465D01*
X75045526Y-87833761D01*
X75002860Y-87410039D01*
X74959289Y-87021033D01*
X74913776Y-86658477D01*
X74865280Y-86314105D01*
X74812765Y-85979652D01*
X74755191Y-85646851D01*
X74754214Y-85641444D01*
X74673620Y-85195752D01*
X74734914Y-85149428D01*
X74794985Y-85107515D01*
X74837603Y-85092248D01*
X74868679Y-85108883D01*
G37*
G36*
X75394539Y-84729992D02*
G01*
X75412520Y-84768988D01*
X75439200Y-84852428D01*
X75473231Y-84974490D01*
X75513265Y-85129350D01*
X75557955Y-85311186D01*
X75605954Y-85514174D01*
X75655914Y-85732492D01*
X75706487Y-85960316D01*
X75756326Y-86191825D01*
X75804084Y-86421194D01*
X75848412Y-86642601D01*
X75887964Y-86850223D01*
X75898402Y-86907318D01*
X75927736Y-87068857D01*
X75955757Y-87221962D01*
X75980505Y-87356003D01*
X76000018Y-87460354D01*
X76011948Y-87522454D01*
X76025952Y-87601608D01*
X76043770Y-87714760D01*
X76062823Y-87845050D01*
X76076205Y-87942624D01*
X76092510Y-88059116D01*
X76107596Y-88155668D01*
X76119705Y-88221688D01*
X76126697Y-88246351D01*
X76155121Y-88248080D01*
X76185492Y-88202556D01*
X76215341Y-88113600D01*
X76217254Y-88106212D01*
X76238490Y-88024179D01*
X76267770Y-87912699D01*
X76299817Y-87791826D01*
X76310145Y-87753130D01*
X76344451Y-87620386D01*
X76379488Y-87477563D01*
X76408678Y-87351611D01*
X76413364Y-87330224D01*
X76440051Y-87208753D01*
X76468738Y-87081313D01*
X76491179Y-86984210D01*
X76525040Y-86828510D01*
X76560880Y-86643340D01*
X76594795Y-86450151D01*
X76622882Y-86270395D01*
X76628853Y-86227728D01*
X76645208Y-86117948D01*
X76663760Y-86008957D01*
X76676059Y-85945790D01*
X76687794Y-85878913D01*
X76703266Y-85773717D01*
X76720737Y-85642854D01*
X76738473Y-85498974D01*
X76744594Y-85446370D01*
X76760744Y-85309119D01*
X76775801Y-85188257D01*
X76788458Y-85093762D01*
X76797409Y-85035615D01*
X76799937Y-85023769D01*
X76817434Y-85020045D01*
X76852142Y-85060739D01*
X76884862Y-85113476D01*
X76932914Y-85197026D01*
X76976163Y-85272308D01*
X76995148Y-85305401D01*
X77006817Y-85335493D01*
X77013705Y-85379987D01*
X77015407Y-85443122D01*
X77011518Y-85529136D01*
X77001634Y-85642270D01*
X76985349Y-85786762D01*
X76962260Y-85966851D01*
X76931961Y-86186776D01*
X76894047Y-86450776D01*
X76870352Y-86612565D01*
X76839635Y-86801931D01*
X76798127Y-87029154D01*
X76748248Y-87282561D01*
X76692415Y-87550481D01*
X76633048Y-87821239D01*
X76572566Y-88083163D01*
X76525694Y-88275737D01*
X76497807Y-88406019D01*
X76491066Y-88490184D01*
X76505682Y-88528911D01*
X76541867Y-88522874D01*
X76590375Y-88482420D01*
X76609968Y-88460404D01*
X76628018Y-88432560D01*
X76646015Y-88393612D01*
X76665452Y-88338283D01*
X76687818Y-88261295D01*
X76714605Y-88157373D01*
X76747303Y-88021239D01*
X76787403Y-87847617D01*
X76836396Y-87631229D01*
X76857974Y-87535270D01*
X76895141Y-87367045D01*
X76936138Y-87177052D01*
X76975551Y-86990596D01*
X77003303Y-86856057D01*
X77031869Y-86715207D01*
X77067156Y-86541119D01*
X77105719Y-86350797D01*
X77144112Y-86161246D01*
X77166901Y-86048690D01*
X77202135Y-85877347D01*
X77230301Y-85751028D01*
X77253911Y-85664403D01*
X77275476Y-85612137D01*
X77297508Y-85588897D01*
X77322516Y-85589352D01*
X77353013Y-85608167D01*
X77368474Y-85620603D01*
X77386750Y-85657090D01*
X77391291Y-85727703D01*
X77381816Y-85836537D01*
X77358042Y-85987688D01*
X77334625Y-86111382D01*
X77312464Y-86225645D01*
X77286364Y-86363819D01*
X77261334Y-86499339D01*
X77257065Y-86522858D01*
X77235207Y-86641921D01*
X77207319Y-86791150D01*
X77175379Y-86960231D01*
X77141364Y-87138854D01*
X77107250Y-87316707D01*
X77075013Y-87483478D01*
X77046630Y-87628856D01*
X77024078Y-87742528D01*
X77011418Y-87804392D01*
X76986434Y-87945171D01*
X76980807Y-88038811D01*
X76994527Y-88085633D01*
X77001947Y-88090438D01*
X77031775Y-88077510D01*
X77087978Y-88033628D01*
X77163082Y-87966335D01*
X77249611Y-87883172D01*
X77340091Y-87791680D01*
X77427044Y-87699400D01*
X77502997Y-87613874D01*
X77560474Y-87542644D01*
X77590250Y-87496945D01*
X77625194Y-87429686D01*
X77677012Y-87333504D01*
X77737229Y-87224029D01*
X77770896Y-87163746D01*
X77838744Y-87042676D01*
X77909532Y-86915842D01*
X77971654Y-86804051D01*
X77992504Y-86766349D01*
X78043080Y-86674991D01*
X78109408Y-86555598D01*
X78182205Y-86424867D01*
X78240874Y-86319733D01*
X78300416Y-86211767D01*
X78349529Y-86120061D01*
X78383401Y-86053790D01*
X78397222Y-86022134D01*
X78397318Y-86021315D01*
X78417597Y-85997323D01*
X78435713Y-85988180D01*
X78479098Y-85996176D01*
X78520597Y-86048634D01*
X78556108Y-86138803D01*
X78574413Y-86216444D01*
X78583770Y-86275394D01*
X78583920Y-86324205D01*
X78571244Y-86375582D01*
X78542118Y-86442235D01*
X78492920Y-86536869D01*
X78471983Y-86575810D01*
X78401032Y-86713357D01*
X78359337Y-86809410D01*
X78347200Y-86864778D01*
X78364924Y-86880269D01*
X78412811Y-86856691D01*
X78491162Y-86794852D01*
X78538287Y-86753083D01*
X78595644Y-86702305D01*
X78687574Y-86622544D01*
X78809403Y-86517792D01*
X78956455Y-86392043D01*
X79124056Y-86249288D01*
X79307532Y-86093520D01*
X79502208Y-85928732D01*
X79614775Y-85833663D01*
X79707435Y-85757300D01*
X79787194Y-85694969D01*
X79845310Y-85653277D01*
X79872591Y-85638801D01*
X79913583Y-85652555D01*
X79945680Y-85672199D01*
X79962177Y-85689231D01*
X79961977Y-85710799D01*
X79940115Y-85743477D01*
X79891622Y-85793837D01*
X79811532Y-85868453D01*
X79766529Y-85909283D01*
X79650024Y-86014986D01*
X79535194Y-86120064D01*
X79415878Y-86230262D01*
X79285917Y-86351326D01*
X79139149Y-86488999D01*
X78969415Y-86649028D01*
X78770554Y-86837157D01*
X78708595Y-86895858D01*
X78570324Y-87026727D01*
X78432299Y-87157061D01*
X78302888Y-87278980D01*
X78190459Y-87384607D01*
X78103379Y-87466060D01*
X78076805Y-87490772D01*
X77999600Y-87565301D01*
X77935320Y-87636124D01*
X77876235Y-87714003D01*
X77814616Y-87809698D01*
X77742732Y-87933972D01*
X77690210Y-88029016D01*
X77619318Y-88159318D01*
X77554439Y-88279915D01*
X77500826Y-88380938D01*
X77463735Y-88452520D01*
X77452060Y-88476238D01*
X77399245Y-88546717D01*
X77347963Y-88571602D01*
X77299395Y-88576149D01*
X77211544Y-88579436D01*
X77092602Y-88581537D01*
X76950761Y-88582527D01*
X76794211Y-88582479D01*
X76631145Y-88581470D01*
X76469752Y-88579573D01*
X76318226Y-88576864D01*
X76184757Y-88573416D01*
X76077536Y-88569304D01*
X76004755Y-88564603D01*
X75974606Y-88559387D01*
X75974353Y-88559096D01*
X75964208Y-88523102D01*
X75953474Y-88456599D01*
X75950082Y-88428061D01*
X75918651Y-88144712D01*
X75885006Y-87858229D01*
X75850337Y-87577798D01*
X75815838Y-87312606D01*
X75782699Y-87071840D01*
X75752113Y-86864687D01*
X75727841Y-86715088D01*
X75703027Y-86571284D01*
X75677085Y-86420785D01*
X75653738Y-86285181D01*
X75641721Y-86215290D01*
X75612986Y-86056996D01*
X75577258Y-85874016D01*
X75536953Y-85677506D01*
X75494486Y-85478621D01*
X75452274Y-85288518D01*
X75412732Y-85118352D01*
X75378276Y-84979279D01*
X75357669Y-84903615D01*
X75335175Y-84811092D01*
X75333611Y-84755676D01*
X75344704Y-84733837D01*
X75381132Y-84720764D01*
X75394539Y-84729992D01*
G37*
G36*
X78890047Y-81764500D02*
G01*
X79011132Y-81768368D01*
X79163891Y-81992636D01*
X79263097Y-82127958D01*
X79366112Y-82244334D01*
X79481302Y-82348213D01*
X79617034Y-82446049D01*
X79781674Y-82544294D01*
X79983590Y-82649398D01*
X80070815Y-82691988D01*
X80211781Y-82757551D01*
X80360811Y-82822963D01*
X80499641Y-82880416D01*
X80605029Y-82920368D01*
X80749062Y-82968896D01*
X80884007Y-83009276D01*
X81020985Y-83043978D01*
X81171118Y-83075468D01*
X81345528Y-83106217D01*
X81555337Y-83138691D01*
X81652316Y-83152811D01*
X81746641Y-83168313D01*
X81819990Y-83183999D01*
X81858549Y-83196840D01*
X81860597Y-83198462D01*
X81876327Y-83232134D01*
X81902585Y-83305746D01*
X81936285Y-83409817D01*
X81974341Y-83534865D01*
X82008277Y-83652222D01*
X82059788Y-83875046D01*
X82096532Y-84118724D01*
X82117863Y-84369912D01*
X82123131Y-84615268D01*
X82111688Y-84841448D01*
X82082886Y-85035109D01*
X82076747Y-85061686D01*
X82052388Y-85153769D01*
X82029724Y-85226811D01*
X82013441Y-85265793D01*
X82012761Y-85266731D01*
X81996355Y-85300857D01*
X81968437Y-85371858D01*
X81933518Y-85467918D01*
X81909924Y-85536077D01*
X81839111Y-85734790D01*
X81761824Y-85934776D01*
X81681483Y-86128506D01*
X81601512Y-86308457D01*
X81525332Y-86467100D01*
X81456366Y-86596911D01*
X81398037Y-86690362D01*
X81368281Y-86727191D01*
X81335366Y-86758205D01*
X81321682Y-86752978D01*
X81318352Y-86704703D01*
X81318141Y-86688745D01*
X81310754Y-86614210D01*
X81287446Y-86544771D01*
X81243648Y-86475888D01*
X81174793Y-86403019D01*
X81076312Y-86321623D01*
X80943637Y-86227158D01*
X80772201Y-86115084D01*
X80687035Y-86061354D01*
X80560800Y-85982014D01*
X80430913Y-85899884D01*
X80313901Y-85825438D01*
X80236626Y-85775845D01*
X80154879Y-85723839D01*
X80091006Y-85684754D01*
X80055997Y-85665266D01*
X80052894Y-85664230D01*
X80021130Y-85649579D01*
X79954437Y-85608516D01*
X79858903Y-85545374D01*
X79740614Y-85464487D01*
X79605659Y-85370191D01*
X79460124Y-85266819D01*
X79310098Y-85158704D01*
X79161667Y-85050182D01*
X79020920Y-84945586D01*
X78893943Y-84849251D01*
X78786825Y-84765511D01*
X78758030Y-84742321D01*
X78513482Y-84534979D01*
X78308339Y-84339905D01*
X78135636Y-84147511D01*
X77988407Y-83948215D01*
X77859687Y-83732428D01*
X77742510Y-83490567D01*
X77629913Y-83213045D01*
X77612059Y-83165239D01*
X77586346Y-83074906D01*
X77571165Y-82965322D01*
X77564888Y-82822887D01*
X77564494Y-82767964D01*
X77565319Y-82645095D01*
X77570039Y-82558283D01*
X77581748Y-82492330D01*
X77603533Y-82432036D01*
X77638487Y-82362205D01*
X77652161Y-82336832D01*
X77781161Y-82151497D01*
X77947580Y-82000440D01*
X78128196Y-81895521D01*
X78272446Y-81835472D01*
X78406945Y-81795027D01*
X78546996Y-81771554D01*
X78707904Y-81762420D01*
X78890047Y-81764500D01*
G37*
G36*
X84695455Y-82697121D02*
G01*
X84753860Y-82707422D01*
X84807200Y-82724932D01*
X84866475Y-82750667D01*
X84989484Y-82825325D01*
X85125447Y-82940063D01*
X85267217Y-83087806D01*
X85407650Y-83261477D01*
X85469830Y-83348121D01*
X85580537Y-83509675D01*
X85692944Y-83675930D01*
X85802139Y-83839423D01*
X85903211Y-83992690D01*
X85991246Y-84128269D01*
X86061333Y-84238697D01*
X86108559Y-84316509D01*
X86117017Y-84331435D01*
X86225997Y-84562717D01*
X86309685Y-84809602D01*
X86361285Y-85051125D01*
X86368183Y-85106375D01*
X86378603Y-85235982D01*
X86385983Y-85390433D01*
X86390278Y-85557727D01*
X86391441Y-85725867D01*
X86389428Y-85882854D01*
X86384193Y-86016688D01*
X86375689Y-86115371D01*
X86372117Y-86138398D01*
X86353100Y-86240921D01*
X86335539Y-86136324D01*
X86294936Y-86030287D01*
X86214425Y-85925314D01*
X86104239Y-85833116D01*
X86034838Y-85792169D01*
X85999530Y-85776002D01*
X85960377Y-85763640D01*
X85910299Y-85754577D01*
X85842219Y-85748311D01*
X85749058Y-85744338D01*
X85623735Y-85742154D01*
X85459174Y-85741256D01*
X85317273Y-85741122D01*
X85050710Y-85739144D01*
X84827904Y-85731853D01*
X84641458Y-85717218D01*
X84483973Y-85693204D01*
X84348051Y-85657779D01*
X84226293Y-85608911D01*
X84111302Y-85544566D01*
X83995679Y-85462712D01*
X83872025Y-85361315D01*
X83842751Y-85335958D01*
X83659096Y-85167350D01*
X83514797Y-85014108D01*
X83403870Y-84867685D01*
X83320331Y-84719532D01*
X83258195Y-84561101D01*
X83229212Y-84459589D01*
X83199424Y-84348448D01*
X83161877Y-84216953D01*
X83124677Y-84093494D01*
X83124531Y-84093028D01*
X83079326Y-83922098D01*
X83064137Y-83787537D01*
X83080514Y-83683085D01*
X83130009Y-83602479D01*
X83214173Y-83539457D01*
X83268142Y-83513269D01*
X83368139Y-83480030D01*
X83488186Y-83453618D01*
X83570555Y-83442825D01*
X83741314Y-83429017D01*
X83946359Y-83583540D01*
X84117973Y-83720005D01*
X84317413Y-83891818D01*
X84545556Y-84099799D01*
X84803275Y-84344770D01*
X85091447Y-84627550D01*
X85410946Y-84948962D01*
X85506933Y-85046803D01*
X85630577Y-85171121D01*
X85725337Y-85262026D01*
X85790153Y-85318741D01*
X85823961Y-85340490D01*
X85825700Y-85326495D01*
X85794309Y-85275980D01*
X85764982Y-85235614D01*
X85684947Y-85134611D01*
X85575211Y-85004936D01*
X85442480Y-84853999D01*
X85293464Y-84689212D01*
X85134870Y-84517987D01*
X84973405Y-84347734D01*
X84815779Y-84185866D01*
X84804987Y-84174965D01*
X84559884Y-83936978D01*
X84336631Y-83739475D01*
X84136488Y-83583474D01*
X83960713Y-83469994D01*
X83884414Y-83430479D01*
X83858303Y-83416284D01*
X84369265Y-83416284D01*
X84391247Y-83469650D01*
X84451413Y-83500129D01*
X84541095Y-83505638D01*
X84651372Y-83484168D01*
X84725591Y-83464574D01*
X84825488Y-83441752D01*
X84905425Y-83425375D01*
X85021414Y-83395565D01*
X85088020Y-83359445D01*
X85106916Y-83315314D01*
X85079773Y-83261470D01*
X85073552Y-83254331D01*
X84973015Y-83178917D01*
X84846948Y-83137216D01*
X84710815Y-83132160D01*
X84589682Y-83162520D01*
X84520319Y-83205807D01*
X84451795Y-83270878D01*
X84397356Y-83342483D01*
X84370247Y-83405373D01*
X84369265Y-83416284D01*
X83858303Y-83416284D01*
X83805290Y-83387464D01*
X83771137Y-83352409D01*
X83770791Y-83331839D01*
X83778951Y-83288742D01*
X83786949Y-83210174D01*
X83793237Y-83111910D01*
X83793960Y-83095902D01*
X83803351Y-82970528D01*
X83823707Y-82875355D01*
X83861413Y-82805994D01*
X83922851Y-82758059D01*
X84014407Y-82727159D01*
X84142464Y-82708907D01*
X84313406Y-82698914D01*
X84374468Y-82696857D01*
X84517296Y-82693101D01*
X84620446Y-82692768D01*
X84695455Y-82697121D01*
G37*
G36*
X77460650Y-84102552D02*
G01*
X77565262Y-84116167D01*
X77655360Y-84136228D01*
X77679502Y-84144198D01*
X77814306Y-84205841D01*
X77935729Y-84288881D01*
X78055056Y-84402362D01*
X78168460Y-84536064D01*
X78353871Y-84797204D01*
X78491928Y-85054211D01*
X78585245Y-85314396D01*
X78636436Y-85585069D01*
X78648114Y-85873540D01*
X78648024Y-85877162D01*
X78644626Y-85999529D01*
X78641005Y-86076487D01*
X78635775Y-86113874D01*
X78627550Y-86117530D01*
X78614944Y-86093294D01*
X78603503Y-86064731D01*
X78571554Y-85996450D01*
X78539731Y-85948263D01*
X78533832Y-85942471D01*
X78497883Y-85928761D01*
X78421350Y-85909526D01*
X78314320Y-85886994D01*
X78186879Y-85863397D01*
X78140195Y-85855445D01*
X77991026Y-85829583D01*
X77879171Y-85806577D01*
X77791171Y-85782206D01*
X77713569Y-85752249D01*
X77632906Y-85712486D01*
X77564428Y-85674882D01*
X77432185Y-85590188D01*
X77295069Y-85484463D01*
X77163914Y-85367746D01*
X77049551Y-85250075D01*
X76962816Y-85141488D01*
X76929330Y-85086416D01*
X76897769Y-85006496D01*
X76869056Y-84903216D01*
X76855340Y-84834051D01*
X76829409Y-84662984D01*
X76815062Y-84535827D01*
X76814513Y-84446094D01*
X76829979Y-84387296D01*
X76863675Y-84352947D01*
X76917815Y-84336559D01*
X76994616Y-84331645D01*
X77026979Y-84331435D01*
X77192676Y-84331435D01*
X77192676Y-84230425D01*
X77199323Y-84161656D01*
X77215827Y-84116904D01*
X77221175Y-84111802D01*
X77272462Y-84099228D01*
X77357668Y-84096525D01*
X77460650Y-84102552D01*
G37*
G36*
X79031524Y-85039519D02*
G01*
X79088362Y-85079086D01*
X79124692Y-85108347D01*
X79224115Y-85192467D01*
X79125949Y-85370680D01*
X79063559Y-85483847D01*
X78996542Y-85605255D01*
X78942694Y-85702676D01*
X78888388Y-85802080D01*
X78834860Y-85902075D01*
X78801769Y-85965391D01*
X78765899Y-86029144D01*
X78737686Y-86068360D01*
X78729175Y-86074321D01*
X78722271Y-86050379D01*
X78716079Y-85985305D01*
X78711303Y-85889229D01*
X78708738Y-85780200D01*
X78705060Y-85486079D01*
X78836842Y-85254771D01*
X78894059Y-85158880D01*
X78944576Y-85082466D01*
X78981880Y-85034924D01*
X78996946Y-85023845D01*
X79031524Y-85039519D01*
G37*
G36*
X74837371Y-83234218D02*
G01*
X74951831Y-83241479D01*
X75062426Y-83254888D01*
X75135963Y-83272942D01*
X75186644Y-83300008D01*
X75210736Y-83321130D01*
X75271852Y-83382247D01*
X75221239Y-83481457D01*
X75191372Y-83562357D01*
X75201855Y-83613080D01*
X75254221Y-83636926D01*
X75294725Y-83639796D01*
X75383675Y-83650471D01*
X75479559Y-83677119D01*
X75563628Y-83713083D01*
X75617137Y-83751712D01*
X75619898Y-83755209D01*
X75643017Y-83794662D01*
X75651341Y-83838008D01*
X75643344Y-83895846D01*
X75617501Y-83978772D01*
X75572284Y-84097383D01*
X75569684Y-84103946D01*
X75524202Y-84219573D01*
X75479565Y-84334664D01*
X75443862Y-84428323D01*
X75437239Y-84446051D01*
X75356675Y-84594619D01*
X75227330Y-84740724D01*
X75051683Y-84882375D01*
X74832213Y-85017582D01*
X74571399Y-85144355D01*
X74563006Y-85147988D01*
X74352128Y-85231717D01*
X74167829Y-85287312D01*
X73995875Y-85317658D01*
X73822034Y-85325639D01*
X73710014Y-85320829D01*
X73486015Y-85304965D01*
X73307456Y-85292883D01*
X73168604Y-85285396D01*
X73063723Y-85283319D01*
X72987080Y-85287466D01*
X72932939Y-85298650D01*
X72895567Y-85317686D01*
X72869228Y-85345387D01*
X72848188Y-85382568D01*
X72826713Y-85430043D01*
X72818912Y-85447323D01*
X72783866Y-85521292D01*
X72757561Y-85572037D01*
X72747029Y-85587338D01*
X72744194Y-85564349D01*
X72745494Y-85505587D01*
X72748173Y-85459939D01*
X72775352Y-85268437D01*
X72829119Y-85050785D01*
X72851593Y-84982157D01*
X73147949Y-84982157D01*
X73169266Y-84981411D01*
X73228587Y-84947874D01*
X73325435Y-84880534D01*
X73459329Y-84778381D01*
X73489043Y-84754852D01*
X73675275Y-84609537D01*
X73872720Y-84460712D01*
X74074974Y-84312792D01*
X74275630Y-84170193D01*
X74468284Y-84037333D01*
X74646530Y-83918626D01*
X74803962Y-83818490D01*
X74934175Y-83741341D01*
X75030763Y-83691595D01*
X75032012Y-83691040D01*
X75097158Y-83653504D01*
X75126608Y-83619401D01*
X75118819Y-83597039D01*
X75072243Y-83594728D01*
X75049036Y-83599544D01*
X74903312Y-83650790D01*
X74726731Y-83738226D01*
X74522469Y-83859709D01*
X74293701Y-84013094D01*
X74043602Y-84196238D01*
X73775349Y-84406997D01*
X73492117Y-84643227D01*
X73452331Y-84677449D01*
X73316830Y-84797758D01*
X73221252Y-84889319D01*
X73165118Y-84951123D01*
X73147949Y-84982157D01*
X72851593Y-84982157D01*
X72904337Y-84821099D01*
X72995869Y-84593492D01*
X73098578Y-84382080D01*
X73205250Y-84204029D01*
X73324120Y-84051861D01*
X73478858Y-83888335D01*
X73658536Y-83723014D01*
X73852222Y-83565459D01*
X74048987Y-83425229D01*
X74203833Y-83330510D01*
X74298716Y-83282706D01*
X74385588Y-83254450D01*
X74487978Y-83239298D01*
X74554395Y-83234502D01*
X74688390Y-83231213D01*
X74837371Y-83234218D01*
G37*
G36*
X71992226Y-80607434D02*
G01*
X71993000Y-80608086D01*
X72002619Y-80640014D01*
X72014271Y-80712489D01*
X72026518Y-80814915D01*
X72037924Y-80936693D01*
X72038429Y-80942887D01*
X72051081Y-81083153D01*
X72064946Y-81187363D01*
X72083576Y-81270671D01*
X72110518Y-81348230D01*
X72149323Y-81435192D01*
X72158014Y-81453372D01*
X72232803Y-81588809D01*
X72324088Y-81711411D01*
X72435707Y-81830422D01*
X72548219Y-81935320D01*
X72680505Y-82048732D01*
X72821772Y-82162309D01*
X72961226Y-82267700D01*
X73088074Y-82356555D01*
X73191524Y-82420524D01*
X73213551Y-82432198D01*
X73380686Y-82500911D01*
X73559383Y-82542142D01*
X73757211Y-82556260D01*
X73981744Y-82543636D01*
X74240553Y-82504640D01*
X74330903Y-82486848D01*
X74439152Y-82466044D01*
X74528400Y-82451761D01*
X74586959Y-82445708D01*
X74603096Y-82447035D01*
X74624769Y-82477355D01*
X74651425Y-82535184D01*
X74654489Y-82543146D01*
X74683148Y-82616835D01*
X74708242Y-82677575D01*
X74708541Y-82678257D01*
X74739935Y-82753842D01*
X74775781Y-82846219D01*
X74811722Y-82943269D01*
X74843402Y-83032878D01*
X74866466Y-83102928D01*
X74876557Y-83141305D01*
X74876321Y-83144931D01*
X74854773Y-83137250D01*
X74824714Y-83086399D01*
X74789648Y-82999041D01*
X74772468Y-82947379D01*
X74731750Y-82834398D01*
X74691496Y-82751853D01*
X74655651Y-82706627D01*
X74632047Y-82702380D01*
X74619419Y-82732756D01*
X74606885Y-82799499D01*
X74597679Y-82882605D01*
X74575228Y-83024955D01*
X74534727Y-83121474D01*
X74476741Y-83171112D01*
X74438650Y-83178055D01*
X74370920Y-83193160D01*
X74271363Y-83235447D01*
X74148418Y-83300370D01*
X74010521Y-83383384D01*
X73866111Y-83479944D01*
X73828533Y-83506712D01*
X73587251Y-83700965D01*
X73369488Y-83916028D01*
X73187184Y-84139763D01*
X73143477Y-84203282D01*
X73069085Y-84315252D01*
X73013871Y-84391907D01*
X72968670Y-84440643D01*
X72924321Y-84468860D01*
X72871659Y-84483955D01*
X72801521Y-84493326D01*
X72781525Y-84495496D01*
X72622937Y-84516107D01*
X72436544Y-84545678D01*
X72244196Y-84580437D01*
X72067745Y-84616613D01*
X72028095Y-84625571D01*
X71940316Y-84643169D01*
X71818465Y-84664011D01*
X71679379Y-84685361D01*
X71553927Y-84702675D01*
X71297725Y-84736709D01*
X71086431Y-84767042D01*
X70913961Y-84795194D01*
X70774228Y-84822684D01*
X70661147Y-84851031D01*
X70568632Y-84881755D01*
X70490598Y-84916376D01*
X70420958Y-84956413D01*
X70355693Y-85001845D01*
X70282616Y-85053876D01*
X70240683Y-85076107D01*
X70221812Y-85071738D01*
X70218097Y-85056332D01*
X70216637Y-85008108D01*
X70217389Y-84993550D01*
X70216506Y-84961824D01*
X70212212Y-84887854D01*
X70205159Y-84780495D01*
X70195999Y-84648604D01*
X70185387Y-84501035D01*
X70173973Y-84346646D01*
X70162412Y-84194290D01*
X70151356Y-84052825D01*
X70141457Y-83931106D01*
X70133370Y-83837988D01*
X70128715Y-83790699D01*
X70112874Y-83647239D01*
X70391272Y-83429047D01*
X70508121Y-83339035D01*
X70624987Y-83251719D01*
X70728895Y-83176630D01*
X70806869Y-83123301D01*
X70811749Y-83120164D01*
X70906653Y-83056569D01*
X70966995Y-83006650D01*
X71003488Y-82960037D01*
X71023938Y-82914759D01*
X71020653Y-82858142D01*
X70977475Y-82808926D01*
X70905744Y-82776207D01*
X70840920Y-82767964D01*
X70703353Y-82783846D01*
X70548185Y-82826798D01*
X70392997Y-82889780D01*
X70255371Y-82965750D01*
X70159667Y-83040778D01*
X70085781Y-83113978D01*
X70101193Y-82780779D01*
X70138693Y-82403853D01*
X70214479Y-82059923D01*
X70328046Y-81749631D01*
X70478890Y-81473617D01*
X70666506Y-81232523D01*
X70890391Y-81026991D01*
X71150040Y-80857663D01*
X71444948Y-80725180D01*
X71774612Y-80630183D01*
X71795538Y-80625678D01*
X71885960Y-80609747D01*
X71956334Y-80603238D01*
X71992226Y-80607434D01*
G37*
G36*
X77327586Y-80064763D02*
G01*
X77423547Y-80067818D01*
X77492870Y-80075547D01*
X77547864Y-80089997D01*
X77600840Y-80113216D01*
X77652467Y-80140820D01*
X77725080Y-80189633D01*
X77821871Y-80266802D01*
X77932450Y-80362832D01*
X78046424Y-80468230D01*
X78153402Y-80573501D01*
X78242992Y-80669152D01*
X78283708Y-80717510D01*
X78348088Y-80803195D01*
X78421706Y-80907803D01*
X78495059Y-81017102D01*
X78558642Y-81116863D01*
X78602954Y-81192857D01*
X78608936Y-81204493D01*
X78645840Y-81287829D01*
X78684240Y-81388269D01*
X78718893Y-81490257D01*
X78744554Y-81578236D01*
X78755981Y-81636650D01*
X78756147Y-81641237D01*
X78732660Y-81682991D01*
X78661783Y-81708090D01*
X78542897Y-81716756D01*
X78542806Y-81716756D01*
X78455907Y-81727560D01*
X78340751Y-81755672D01*
X78214873Y-81795365D01*
X78095807Y-81840911D01*
X78001090Y-81886579D01*
X77976664Y-81901717D01*
X77816277Y-82032839D01*
X77679896Y-82186773D01*
X77595918Y-82319427D01*
X77532787Y-82490406D01*
X77502155Y-82687121D01*
X77504927Y-82894943D01*
X77542007Y-83099240D01*
X77546654Y-83115578D01*
X77672962Y-83477338D01*
X77831329Y-83805538D01*
X78026571Y-84110043D01*
X78043485Y-84133078D01*
X78112723Y-84234274D01*
X78150777Y-84308018D01*
X78156130Y-84347491D01*
X78140497Y-84364669D01*
X78110572Y-84354235D01*
X78057745Y-84312023D01*
X78029040Y-84286014D01*
X77958977Y-84224783D01*
X77896223Y-84175570D01*
X77865826Y-84155634D01*
X77748207Y-84105081D01*
X77612688Y-84066039D01*
X77474369Y-84041044D01*
X77348352Y-84032635D01*
X77249739Y-84043346D01*
X77231644Y-84049113D01*
X77158100Y-84088033D01*
X77123686Y-84141665D01*
X77116177Y-84209689D01*
X77112900Y-84250345D01*
X77095140Y-84271301D01*
X77050126Y-84279071D01*
X76977954Y-84280174D01*
X76882822Y-84286673D01*
X76820890Y-84312212D01*
X76783938Y-84365857D01*
X76763744Y-84456670D01*
X76756955Y-84523843D01*
X76744139Y-84682927D01*
X76654432Y-84651268D01*
X76495852Y-84587368D01*
X76324377Y-84504857D01*
X76151667Y-84410568D01*
X75989384Y-84311330D01*
X75849185Y-84213975D01*
X75742733Y-84125334D01*
X75723023Y-84105613D01*
X75677566Y-84050886D01*
X75666205Y-84010881D01*
X75678169Y-83976898D01*
X75709921Y-83872977D01*
X75694052Y-83777423D01*
X75634156Y-83696380D01*
X75533825Y-83635995D01*
X75466401Y-83614687D01*
X75364041Y-83588432D01*
X75304099Y-83565592D01*
X75278786Y-83539250D01*
X75280309Y-83502492D01*
X75294963Y-83462511D01*
X75313960Y-83399528D01*
X75303386Y-83349659D01*
X75283515Y-83315920D01*
X75226702Y-83256936D01*
X75165759Y-83220680D01*
X75093346Y-83166801D01*
X75056424Y-83102189D01*
X75008027Y-82953165D01*
X74967351Y-82779099D01*
X74939936Y-82606165D01*
X74932241Y-82515598D01*
X74924361Y-82352940D01*
X75115634Y-82303919D01*
X75253548Y-82262803D01*
X75380949Y-82210780D01*
X75505078Y-82142897D01*
X75633176Y-82054204D01*
X75772484Y-81939749D01*
X75930245Y-81794582D01*
X76089622Y-81637965D01*
X76213012Y-81516011D01*
X76331225Y-81402561D01*
X76437174Y-81304156D01*
X76523774Y-81227339D01*
X76583938Y-81178652D01*
X76596288Y-81170184D01*
X76675028Y-81128248D01*
X76781274Y-81081458D01*
X76893314Y-81039302D01*
X76903856Y-81035755D01*
X77001695Y-81000525D01*
X77083001Y-80966304D01*
X77133294Y-80939318D01*
X77139213Y-80934540D01*
X77158435Y-80905001D01*
X77150678Y-80872448D01*
X77110935Y-80830939D01*
X77034202Y-80774532D01*
X76967178Y-80730325D01*
X76822459Y-80616382D01*
X76685814Y-80471465D01*
X76583380Y-80327941D01*
X76556974Y-80276554D01*
X76560822Y-80241939D01*
X76588346Y-80207117D01*
X76660604Y-80148797D01*
X76760238Y-80106922D01*
X76893545Y-80080005D01*
X77066823Y-80066556D01*
X77192676Y-80064334D01*
X77327586Y-80064763D01*
G37*
G36*
X82651934Y-83866301D02*
G01*
X82604495Y-83895383D01*
X82580514Y-83908088D01*
X82505541Y-83948181D01*
X82410772Y-84001238D01*
X82341089Y-84041525D01*
X82252523Y-84092303D01*
X82199165Y-84118625D01*
X82172949Y-84123514D01*
X82165809Y-84109992D01*
X82165856Y-84107167D01*
X82187312Y-84089142D01*
X82243362Y-84055396D01*
X82322587Y-84011786D01*
X82413569Y-83964166D01*
X82504892Y-83918393D01*
X82585136Y-83880321D01*
X82642885Y-83855806D01*
X82666511Y-83850410D01*
X82651934Y-83866301D01*
G37*
G36*
X82771620Y-83801735D02*
G01*
X82768102Y-83816972D01*
X82754533Y-83818822D01*
X82733436Y-83809444D01*
X82737446Y-83801735D01*
X82767863Y-83798667D01*
X82771620Y-83801735D01*
G37*
G36*
X81363222Y-79021525D02*
G01*
X81437489Y-79030592D01*
X81497800Y-79046571D01*
X81551746Y-79068683D01*
X81660221Y-79133659D01*
X81783492Y-79231864D01*
X81909954Y-79352582D01*
X82028004Y-79485102D01*
X82089424Y-79565063D01*
X82165559Y-79670333D01*
X82252603Y-79789722D01*
X82326426Y-79890211D01*
X82382739Y-79970016D01*
X82423428Y-80034563D01*
X82441633Y-80072732D01*
X82441764Y-80077184D01*
X82417105Y-80075929D01*
X82357509Y-80055307D01*
X82273679Y-80019292D01*
X82229104Y-79998251D01*
X82115980Y-79947897D01*
X82000484Y-79903826D01*
X81903987Y-79874039D01*
X81886878Y-79870082D01*
X81753845Y-79854602D01*
X81634475Y-79863609D01*
X81537675Y-79894236D01*
X81472348Y-79943617D01*
X81447401Y-80008888D01*
X81447368Y-80011512D01*
X81455542Y-80051971D01*
X81483133Y-80090998D01*
X81534752Y-80130902D01*
X81615004Y-80173994D01*
X81728497Y-80222585D01*
X81879841Y-80278983D01*
X82073641Y-80345500D01*
X82190658Y-80384177D01*
X82317315Y-80429083D01*
X82445974Y-80480362D01*
X82555220Y-80529297D01*
X82587933Y-80545861D01*
X82682113Y-80602223D01*
X82749889Y-80661754D01*
X82795391Y-80733973D01*
X82822751Y-80828400D01*
X82836102Y-80954552D01*
X82839575Y-81121950D01*
X82839572Y-81125622D01*
X82835330Y-81259392D01*
X82822027Y-81402017D01*
X82798395Y-81559756D01*
X82763163Y-81738864D01*
X82715060Y-81945602D01*
X82652817Y-82186225D01*
X82575163Y-82466993D01*
X82547865Y-82562799D01*
X82509413Y-82703397D01*
X82475129Y-82840560D01*
X82448422Y-82959828D01*
X82432704Y-83046738D01*
X82431479Y-83056309D01*
X82422855Y-83127891D01*
X82410582Y-83172178D01*
X82384748Y-83193177D01*
X82335437Y-83194893D01*
X82252738Y-83181331D01*
X82165027Y-83163976D01*
X82060294Y-83145817D01*
X81928375Y-83126447D01*
X81793136Y-83109298D01*
X81754936Y-83105040D01*
X81336617Y-83047403D01*
X80954176Y-82966203D01*
X80596204Y-82857675D01*
X80251295Y-82718050D01*
X79908042Y-82543561D01*
X79716736Y-82431921D01*
X79580167Y-82345418D01*
X79476386Y-82269099D01*
X79392158Y-82190572D01*
X79314250Y-82097442D01*
X79229426Y-81977316D01*
X79226276Y-81972630D01*
X79047077Y-81668484D01*
X78918999Y-81365859D01*
X78841940Y-81064344D01*
X78815797Y-80763527D01*
X78840466Y-80462997D01*
X78843474Y-80445451D01*
X78906667Y-80170049D01*
X78992051Y-79928730D01*
X79097590Y-79724141D01*
X79221249Y-79558931D01*
X79360992Y-79435746D01*
X79514784Y-79357234D01*
X79680589Y-79326043D01*
X79704482Y-79325603D01*
X79781228Y-79329491D01*
X79851322Y-79343992D01*
X79925814Y-79373830D01*
X80015752Y-79423732D01*
X80132188Y-79498426D01*
X80174075Y-79526467D01*
X80253762Y-79574062D01*
X80325035Y-79606332D01*
X80363755Y-79615391D01*
X80414291Y-79635545D01*
X80481406Y-79696823D01*
X80566045Y-79800452D01*
X80669154Y-79947657D01*
X80791677Y-80139662D01*
X80877834Y-80281788D01*
X80954823Y-80411296D01*
X81025348Y-80530829D01*
X81083981Y-80631119D01*
X81125293Y-80702895D01*
X81140529Y-80730325D01*
X81170592Y-80785677D01*
X81218042Y-80871793D01*
X81275178Y-80974733D01*
X81310414Y-81037893D01*
X81372021Y-81151981D01*
X81451255Y-81304797D01*
X81544235Y-81488541D01*
X81647078Y-81695412D01*
X81755903Y-81917609D01*
X81866828Y-82147330D01*
X81963315Y-82349974D01*
X82021191Y-82466190D01*
X82066819Y-82545024D01*
X82098082Y-82583415D01*
X82112862Y-82578303D01*
X82113766Y-82567483D01*
X82104345Y-82528032D01*
X82079141Y-82453555D01*
X82042744Y-82356065D01*
X81999744Y-82247577D01*
X81954730Y-82140102D01*
X81924144Y-82071170D01*
X81889287Y-81992628D01*
X81865153Y-81933725D01*
X81857459Y-81909502D01*
X81846391Y-81875067D01*
X81815348Y-81801595D01*
X81767574Y-81695747D01*
X81706312Y-81564187D01*
X81634806Y-81413579D01*
X81556299Y-81250586D01*
X81474035Y-81081871D01*
X81391256Y-80914098D01*
X81311207Y-80753931D01*
X81237130Y-80608031D01*
X81172269Y-80483064D01*
X81119868Y-80385692D01*
X81092125Y-80337164D01*
X80997570Y-80189841D01*
X80887005Y-80034605D01*
X80771364Y-79885713D01*
X80661581Y-79757418D01*
X80593093Y-79686559D01*
X80465083Y-79563824D01*
X80508983Y-79405924D01*
X80552483Y-79271949D01*
X80603264Y-79172571D01*
X80669325Y-79102742D01*
X80758664Y-79057413D01*
X80879279Y-79031536D01*
X81039170Y-79020062D01*
X81123166Y-79018286D01*
X81262586Y-79017910D01*
X81363222Y-79021525D01*
G37*
G36*
X74356897Y-78301819D02*
G01*
X74396508Y-78389452D01*
X74427207Y-78473272D01*
X74435868Y-78505093D01*
X74464408Y-78590213D01*
X74502358Y-78624967D01*
X74549730Y-78609352D01*
X74606537Y-78543363D01*
X74669492Y-78433543D01*
X74705153Y-78369697D01*
X74741304Y-78329638D01*
X74787370Y-78312309D01*
X74852776Y-78316655D01*
X74946950Y-78341620D01*
X75079316Y-78386147D01*
X75082511Y-78387263D01*
X75278144Y-78463740D01*
X75460208Y-78550361D01*
X75616274Y-78640643D01*
X75730810Y-78725364D01*
X75819600Y-78803284D01*
X75743626Y-78786309D01*
X75570496Y-78756141D01*
X75427409Y-78751766D01*
X75300170Y-78773085D01*
X75267473Y-78782975D01*
X75103488Y-78846226D01*
X74964058Y-78918115D01*
X74853418Y-78994611D01*
X74775806Y-79071687D01*
X74735457Y-79145315D01*
X74736608Y-79211465D01*
X74769964Y-79256053D01*
X74791718Y-79269045D01*
X74823761Y-79276040D01*
X74873478Y-79276539D01*
X74948254Y-79270048D01*
X75055472Y-79256068D01*
X75202519Y-79234105D01*
X75283191Y-79221556D01*
X75430550Y-79200941D01*
X75595389Y-79181678D01*
X75747989Y-79167154D01*
X75785177Y-79164349D01*
X76030856Y-79147292D01*
X76102499Y-79336488D01*
X76148706Y-79459525D01*
X76201013Y-79600323D01*
X76248109Y-79728430D01*
X76248169Y-79728594D01*
X76355986Y-80003638D01*
X76463040Y-80232720D01*
X76572775Y-80420967D01*
X76688638Y-80573504D01*
X76814072Y-80695459D01*
X76952523Y-80791957D01*
X76969283Y-80801568D01*
X77026987Y-80842226D01*
X77057469Y-80880040D01*
X77058991Y-80891242D01*
X77032544Y-80917169D01*
X76970884Y-80949736D01*
X76897923Y-80978116D01*
X76789047Y-81016191D01*
X76697436Y-81053273D01*
X76615441Y-81094776D01*
X76535412Y-81146117D01*
X76449699Y-81212710D01*
X76350652Y-81299970D01*
X76230622Y-81413313D01*
X76090838Y-81549446D01*
X75909419Y-81725039D01*
X75756109Y-81867104D01*
X75624439Y-81979959D01*
X75507941Y-82067920D01*
X75400150Y-82135306D01*
X75294596Y-82186434D01*
X75184812Y-82225621D01*
X75064332Y-82257185D01*
X75014306Y-82268098D01*
X74928225Y-82286710D01*
X74806449Y-82313842D01*
X74663186Y-82346288D01*
X74512644Y-82380849D01*
X74463009Y-82392353D01*
X74175298Y-82451952D01*
X73927351Y-82487938D01*
X73720949Y-82500126D01*
X73557876Y-82488330D01*
X73550875Y-82487105D01*
X73401117Y-82444677D01*
X73236618Y-82367713D01*
X73052351Y-82253514D01*
X72876698Y-82125363D01*
X72686903Y-81974804D01*
X72535057Y-81843762D01*
X72415005Y-81725634D01*
X72320588Y-81613816D01*
X72245650Y-81501705D01*
X72184035Y-81382695D01*
X72183770Y-81382117D01*
X72160148Y-81324552D01*
X72141273Y-81261809D01*
X72125688Y-81184896D01*
X72111935Y-81084819D01*
X72098557Y-80952584D01*
X72084096Y-80779199D01*
X72082278Y-80755956D01*
X72065191Y-80522029D01*
X72056808Y-80332826D01*
X72061087Y-80182032D01*
X72081985Y-80063329D01*
X72123463Y-79970401D01*
X72189479Y-79896931D01*
X72283991Y-79836603D01*
X72410957Y-79783100D01*
X72574338Y-79730105D01*
X72758569Y-79676834D01*
X72843981Y-79650674D01*
X73039120Y-79650674D01*
X73060571Y-79691716D01*
X73122566Y-79758817D01*
X73161037Y-79794021D01*
X73317201Y-79913073D01*
X73516554Y-80032927D01*
X73760388Y-80154128D01*
X74049998Y-80277223D01*
X74386677Y-80402756D01*
X74771720Y-80531273D01*
X75206421Y-80663320D01*
X75257560Y-80678152D01*
X75456992Y-80735680D01*
X75614633Y-80780947D01*
X75737916Y-80815994D01*
X75834275Y-80842862D01*
X75911145Y-80863592D01*
X75975959Y-80880222D01*
X76036153Y-80894795D01*
X76099160Y-80909350D01*
X76103372Y-80910309D01*
X76205652Y-80934136D01*
X76298577Y-80956763D01*
X76359679Y-80972657D01*
X76447521Y-80991118D01*
X76521527Y-80995839D01*
X76568218Y-80986749D01*
X76577540Y-80973817D01*
X76556217Y-80952559D01*
X76529409Y-80948186D01*
X76474621Y-80938538D01*
X76401804Y-80914788D01*
X76388556Y-80909444D01*
X76307221Y-80879530D01*
X76207129Y-80848021D01*
X76161157Y-80835207D01*
X75944037Y-80774583D01*
X75703124Y-80701353D01*
X75444449Y-80617803D01*
X75174047Y-80526219D01*
X74897949Y-80428888D01*
X74622189Y-80328095D01*
X74352798Y-80226128D01*
X74095810Y-80125271D01*
X73857257Y-80027813D01*
X73643173Y-79936038D01*
X73459589Y-79852233D01*
X73312538Y-79778684D01*
X73208053Y-79717678D01*
X73202488Y-79713936D01*
X73111632Y-79658782D01*
X73056658Y-79638696D01*
X73039120Y-79650674D01*
X72843981Y-79650674D01*
X72880112Y-79639608D01*
X72959202Y-79606890D01*
X73003713Y-79573437D01*
X73021516Y-79534009D01*
X73022390Y-79501194D01*
X73004853Y-79434753D01*
X72967377Y-79355685D01*
X72952038Y-79330727D01*
X72896336Y-79231799D01*
X72849332Y-79121909D01*
X72818408Y-79020326D01*
X72810204Y-78960531D01*
X72832121Y-78880298D01*
X72894049Y-78785895D01*
X72988735Y-78682998D01*
X73108926Y-78577282D01*
X73247369Y-78474424D01*
X73396811Y-78380099D01*
X73549999Y-78299983D01*
X73699681Y-78239753D01*
X73751371Y-78224014D01*
X73863470Y-78201041D01*
X73995640Y-78185137D01*
X74103361Y-78180073D01*
X74295546Y-78180073D01*
X74356897Y-78301819D01*
G37*
G36*
X72756850Y-78874277D02*
G01*
X72758143Y-78917317D01*
X72758191Y-78939363D01*
X72778194Y-79085407D01*
X72832618Y-79241004D01*
X72900535Y-79364942D01*
X72937381Y-79433049D01*
X72960227Y-79498585D01*
X72965375Y-79547060D01*
X72951333Y-79564129D01*
X72913431Y-79571628D01*
X72838573Y-79591727D01*
X72738435Y-79620827D01*
X72624697Y-79655333D01*
X72509037Y-79691645D01*
X72403133Y-79726168D01*
X72318664Y-79755303D01*
X72271586Y-79773519D01*
X72188628Y-79820001D01*
X72117131Y-79876655D01*
X72098298Y-79897179D01*
X72050086Y-79986964D01*
X72014541Y-80111149D01*
X71995197Y-80253694D01*
X71993817Y-80371325D01*
X71994589Y-80450240D01*
X71982954Y-80495071D01*
X71952973Y-80522582D01*
X71937212Y-80531138D01*
X71869784Y-80555772D01*
X71821941Y-80563348D01*
X71774780Y-80570443D01*
X71692903Y-80589103D01*
X71590629Y-80615934D01*
X71541562Y-80629828D01*
X71237767Y-80742107D01*
X70966635Y-80893652D01*
X70727232Y-81085225D01*
X70518625Y-81317584D01*
X70339882Y-81591488D01*
X70323555Y-81621301D01*
X70216345Y-81820248D01*
X69930394Y-81800715D01*
X69788813Y-81793032D01*
X69618048Y-81786770D01*
X69440171Y-81782600D01*
X69285613Y-81781183D01*
X69134862Y-81782240D01*
X69025465Y-81786107D01*
X68947545Y-81793825D01*
X68891224Y-81806434D01*
X68846626Y-81824978D01*
X68840797Y-81828084D01*
X68754810Y-81874985D01*
X68773350Y-81738377D01*
X68803876Y-81531967D01*
X68840708Y-81312922D01*
X68882071Y-81089523D01*
X68926186Y-80870050D01*
X68971279Y-80662785D01*
X69015571Y-80476009D01*
X69057286Y-80318001D01*
X69094648Y-80197044D01*
X69115855Y-80141990D01*
X69150316Y-80070531D01*
X69178841Y-80036613D01*
X69213505Y-80029786D01*
X69240614Y-80034005D01*
X69289454Y-80044728D01*
X69377710Y-80064840D01*
X69494912Y-80091930D01*
X69630592Y-80123582D01*
X69708519Y-80141879D01*
X70010422Y-80202974D01*
X70274397Y-80234750D01*
X70504423Y-80237400D01*
X70704485Y-80211120D01*
X70772192Y-80193964D01*
X71071453Y-80106112D01*
X71325972Y-80028565D01*
X71540647Y-79958838D01*
X71720375Y-79894445D01*
X71870054Y-79832903D01*
X71994582Y-79771724D01*
X72098858Y-79708426D01*
X72187779Y-79640521D01*
X72266242Y-79565527D01*
X72339146Y-79480956D01*
X72411388Y-79384325D01*
X72435417Y-79350088D01*
X72507229Y-79245047D01*
X72572811Y-79146330D01*
X72623601Y-79066978D01*
X72646319Y-79028946D01*
X72699636Y-78933342D01*
X72732536Y-78878333D01*
X72749961Y-78859964D01*
X72756850Y-78874277D01*
G37*
G36*
X71083915Y-76277390D02*
G01*
X71220573Y-76295800D01*
X71339139Y-76333291D01*
X71455618Y-76393982D01*
X71506708Y-76426673D01*
X71664572Y-76548899D01*
X71780893Y-76675995D01*
X71851459Y-76803143D01*
X71860680Y-76831549D01*
X71876817Y-76906427D01*
X71877502Y-76977015D01*
X71862000Y-77065303D01*
X71851382Y-77109384D01*
X71829924Y-77202687D01*
X71815037Y-77282204D01*
X71810234Y-77325839D01*
X71803145Y-77356539D01*
X71774099Y-77375497D01*
X71711429Y-77388093D01*
X71662858Y-77393790D01*
X71565376Y-77409604D01*
X71443703Y-77437023D01*
X71321963Y-77470523D01*
X71305847Y-77475523D01*
X71192633Y-77516906D01*
X71046782Y-77578566D01*
X70879884Y-77654860D01*
X70703526Y-77740140D01*
X70529298Y-77828764D01*
X70368786Y-77915085D01*
X70233579Y-77993458D01*
X70201083Y-78013687D01*
X70018048Y-78131354D01*
X69817201Y-78262851D01*
X69605967Y-78403121D01*
X69391772Y-78547107D01*
X69182041Y-78689752D01*
X68984200Y-78826000D01*
X68805675Y-78950794D01*
X68653891Y-79059077D01*
X68536273Y-79145793D01*
X68516692Y-79160726D01*
X68483518Y-79185674D01*
X68423338Y-79230498D01*
X68362908Y-79275323D01*
X68284923Y-79333100D01*
X68229938Y-79374316D01*
X68184466Y-79409573D01*
X68135016Y-79449475D01*
X68068100Y-79504623D01*
X68010145Y-79552594D01*
X67925177Y-79627944D01*
X67873382Y-79683736D01*
X67855188Y-79716390D01*
X67871025Y-79722329D01*
X67921320Y-79697975D01*
X67967551Y-79666620D01*
X71223700Y-79666620D01*
X71231748Y-79710938D01*
X71251485Y-79738418D01*
X71314543Y-79767084D01*
X71400118Y-79750809D01*
X71466366Y-79716587D01*
X71541686Y-79647168D01*
X71612431Y-79539036D01*
X71623176Y-79517949D01*
X71667772Y-79401936D01*
X71696068Y-79275632D01*
X71708484Y-79148550D01*
X71705440Y-79030202D01*
X71687356Y-78930101D01*
X71654653Y-78857758D01*
X71607752Y-78822686D01*
X71592373Y-78820840D01*
X71547019Y-78844307D01*
X71501590Y-78907076D01*
X71463225Y-78997697D01*
X71448555Y-79051500D01*
X71427489Y-79121339D01*
X71390820Y-79220568D01*
X71344964Y-79332282D01*
X71323009Y-79382195D01*
X71267631Y-79510716D01*
X71235094Y-79602702D01*
X71223700Y-79666620D01*
X67967551Y-79666620D01*
X67999053Y-79645254D01*
X68052783Y-79607359D01*
X68142802Y-79545671D01*
X68262563Y-79464549D01*
X68405515Y-79368354D01*
X68565109Y-79261443D01*
X68734798Y-79148178D01*
X68908031Y-79032918D01*
X69078259Y-78920021D01*
X69238934Y-78813848D01*
X69383507Y-78718758D01*
X69505428Y-78639110D01*
X69598149Y-78579265D01*
X69641804Y-78551718D01*
X69699119Y-78516448D01*
X69756556Y-78481709D01*
X69822745Y-78442421D01*
X69906318Y-78393505D01*
X70015906Y-78329883D01*
X70160142Y-78246476D01*
X70182686Y-78233453D01*
X70525447Y-78037889D01*
X70826698Y-77871113D01*
X71086319Y-77733187D01*
X71304192Y-77624171D01*
X71480197Y-77544126D01*
X71614214Y-77493111D01*
X71675379Y-77476257D01*
X71736810Y-77457257D01*
X71772524Y-77435456D01*
X71773347Y-77434260D01*
X71797634Y-77433604D01*
X71832617Y-77464768D01*
X71869468Y-77496238D01*
X71927201Y-77517650D01*
X72018444Y-77532953D01*
X72067848Y-77538317D01*
X72239071Y-77571637D01*
X72392079Y-77639154D01*
X72537095Y-77746570D01*
X72654792Y-77865699D01*
X72762034Y-77998520D01*
X72829090Y-78117913D01*
X72858441Y-78236660D01*
X72852569Y-78367540D01*
X72813957Y-78523334D01*
X72794147Y-78583279D01*
X72734007Y-78729619D01*
X72650362Y-78894700D01*
X72550427Y-79067288D01*
X72441418Y-79236149D01*
X72330549Y-79390050D01*
X72225037Y-79517756D01*
X72140337Y-79601247D01*
X72050811Y-79666123D01*
X71935501Y-79730220D01*
X71788553Y-79796118D01*
X71604114Y-79866400D01*
X71376330Y-79943644D01*
X71329354Y-79958781D01*
X71126689Y-80023444D01*
X70965324Y-80074051D01*
X70837786Y-80112327D01*
X70736604Y-80139996D01*
X70654305Y-80158783D01*
X70583417Y-80170413D01*
X70516467Y-80176610D01*
X70445985Y-80179098D01*
X70372664Y-80179594D01*
X70288148Y-80178688D01*
X70208697Y-80174841D01*
X70127098Y-80166722D01*
X70036142Y-80153000D01*
X69928616Y-80132345D01*
X69797310Y-80103428D01*
X69635014Y-80064917D01*
X69434515Y-80015483D01*
X69298428Y-79981419D01*
X69023827Y-79917821D01*
X68789524Y-79874920D01*
X68597049Y-79852882D01*
X68447932Y-79851877D01*
X68343703Y-79872073D01*
X68335008Y-79875611D01*
X68283121Y-79910298D01*
X68211414Y-79973814D01*
X68132081Y-80054954D01*
X68097495Y-80093824D01*
X68015643Y-80185154D01*
X67933890Y-80270339D01*
X67865904Y-80335330D01*
X67846612Y-80351737D01*
X67774971Y-80426034D01*
X67740357Y-80511346D01*
X67737462Y-80526886D01*
X67723857Y-80583466D01*
X67709483Y-80605363D01*
X67704893Y-80602172D01*
X67698671Y-80566683D01*
X67694044Y-80488567D01*
X67690959Y-80376430D01*
X67689362Y-80238880D01*
X67689201Y-80084523D01*
X67690424Y-79921966D01*
X67692976Y-79759817D01*
X67696805Y-79606683D01*
X67701857Y-79471171D01*
X67708081Y-79361887D01*
X67712858Y-79307823D01*
X67761054Y-79034553D01*
X67844998Y-78746028D01*
X67959948Y-78458432D01*
X67964823Y-78447828D01*
X68012803Y-78341126D01*
X68055522Y-78241067D01*
X68085827Y-78164574D01*
X68092071Y-78146822D01*
X68122516Y-78084319D01*
X68174158Y-78039622D01*
X68242265Y-78006239D01*
X68452604Y-77932286D01*
X68699991Y-77873330D01*
X68987904Y-77828784D01*
X69319815Y-77798061D01*
X69547947Y-77785750D01*
X69724609Y-77775287D01*
X69856484Y-77759349D01*
X69949915Y-77736102D01*
X70011248Y-77703711D01*
X70046827Y-77660343D01*
X70055421Y-77639030D01*
X70051784Y-77568726D01*
X69999968Y-77494017D01*
X69902527Y-77417835D01*
X69823357Y-77372707D01*
X69753038Y-77338688D01*
X69690142Y-77315900D01*
X69620628Y-77301640D01*
X69530462Y-77293208D01*
X69405604Y-77287902D01*
X69378301Y-77287068D01*
X69222863Y-77285654D01*
X69089281Y-77293387D01*
X68962717Y-77313036D01*
X68828334Y-77347367D01*
X68671298Y-77399146D01*
X68560447Y-77439584D01*
X68468913Y-77471878D01*
X68397307Y-77493665D01*
X68357734Y-77501378D01*
X68353939Y-77500434D01*
X68352946Y-77467008D01*
X68374341Y-77403896D01*
X68411536Y-77323697D01*
X68457944Y-77239013D01*
X68506978Y-77162442D01*
X68552049Y-77106585D01*
X68566714Y-77093452D01*
X68623759Y-77054998D01*
X68703111Y-77007651D01*
X68791437Y-76958590D01*
X68875405Y-76914997D01*
X68941682Y-76884052D01*
X68976214Y-76872908D01*
X69007769Y-76863082D01*
X69069208Y-76837972D01*
X69112902Y-76818593D01*
X69488306Y-76655864D01*
X69838980Y-76520656D01*
X70161824Y-76413910D01*
X70453735Y-76336563D01*
X70711612Y-76289553D01*
X70913160Y-76273942D01*
X71083915Y-76277390D01*
G37*
G36*
X78522960Y-79016646D02*
G01*
X78519700Y-79067416D01*
X78508791Y-79151869D01*
X78492438Y-79253383D01*
X78488947Y-79272953D01*
X78468973Y-79388133D01*
X78445431Y-79531412D01*
X78422001Y-79680144D01*
X78410450Y-79756359D01*
X78388697Y-79897283D01*
X78364751Y-80044176D01*
X78342272Y-80174907D01*
X78331636Y-80233084D01*
X78313667Y-80336582D01*
X78300551Y-80428315D01*
X78294858Y-80490068D01*
X78294795Y-80494286D01*
X78285266Y-80549723D01*
X78263114Y-80580553D01*
X78237989Y-80574723D01*
X78234409Y-80569697D01*
X78232919Y-80536297D01*
X78240551Y-80466711D01*
X78255691Y-80374874D01*
X78258940Y-80357826D01*
X78276351Y-80266000D01*
X78300152Y-80137345D01*
X78327846Y-79985518D01*
X78356935Y-79824176D01*
X78373620Y-79730729D01*
X78416965Y-79489968D01*
X78452578Y-79298784D01*
X78480683Y-79156114D01*
X78501501Y-79060895D01*
X78515254Y-79012064D01*
X78522166Y-79008558D01*
X78522960Y-79016646D01*
G37*
G36*
X82338868Y-80134605D02*
G01*
X82337410Y-80160309D01*
X82304784Y-80213973D01*
X82291435Y-80232978D01*
X82233792Y-80293273D01*
X82182316Y-80305666D01*
X82156125Y-80289973D01*
X82160190Y-80262760D01*
X82191756Y-80218917D01*
X82237322Y-80172580D01*
X82283387Y-80137887D01*
X82310791Y-80128004D01*
X82338868Y-80134605D01*
G37*
G36*
X76846379Y-77032220D02*
G01*
X76859657Y-77053316D01*
X76871064Y-77096750D01*
X76881805Y-77169294D01*
X76893086Y-77277719D01*
X76906111Y-77428794D01*
X76909878Y-77475229D01*
X76922804Y-77632301D01*
X76937141Y-77800889D01*
X76950979Y-77958787D01*
X76960615Y-78064735D01*
X76976904Y-78248511D01*
X76993171Y-78448975D01*
X77009041Y-78659804D01*
X77024140Y-78874673D01*
X77038095Y-79087257D01*
X77050529Y-79291232D01*
X77061071Y-79480273D01*
X77069344Y-79648056D01*
X77074974Y-79788257D01*
X77077588Y-79894550D01*
X77076812Y-79960612D01*
X77073949Y-79979704D01*
X77040958Y-79996558D01*
X77011749Y-79999851D01*
X76978086Y-79989794D01*
X76963538Y-79950823D01*
X76961034Y-79903736D01*
X76958559Y-79790533D01*
X76953191Y-79633813D01*
X76945335Y-79441214D01*
X76935396Y-79220373D01*
X76923780Y-78978930D01*
X76910891Y-78724520D01*
X76897136Y-78464783D01*
X76882919Y-78207356D01*
X76868646Y-77959878D01*
X76854721Y-77729986D01*
X76841551Y-77525318D01*
X76829540Y-77353512D01*
X76819095Y-77222206D01*
X76818234Y-77212515D01*
X76811712Y-77105403D01*
X76815935Y-77044727D01*
X76830024Y-77026692D01*
X76846379Y-77032220D01*
G37*
G36*
X83370188Y-79032783D02*
G01*
X83343018Y-79069079D01*
X83290274Y-79130199D01*
X83214338Y-79213009D01*
X83117593Y-79314379D01*
X83103219Y-79329161D01*
X82999039Y-79436861D01*
X82898523Y-79542193D01*
X82811519Y-79634740D01*
X82747877Y-79704087D01*
X82735598Y-79717913D01*
X82663853Y-79799687D01*
X82591735Y-79881858D01*
X82557607Y-79920729D01*
X82502245Y-79974560D01*
X82468760Y-79984304D01*
X82461873Y-79977607D01*
X82469308Y-79942485D01*
X82513422Y-79876500D01*
X82591932Y-79782104D01*
X82702558Y-79661750D01*
X82843018Y-79517889D01*
X83011031Y-79352975D01*
X83204316Y-79169458D01*
X83274418Y-79104157D01*
X83338271Y-79047190D01*
X83369400Y-79024442D01*
X83370188Y-79032783D01*
G37*
G36*
X85057989Y-77613052D02*
G01*
X85167459Y-77620841D01*
X85357108Y-77641120D01*
X85523173Y-77670426D01*
X85676529Y-77712908D01*
X85828049Y-77772713D01*
X85988607Y-77853988D01*
X86169076Y-77960882D01*
X86330012Y-78064286D01*
X86478534Y-78160927D01*
X86592127Y-78231940D01*
X86677907Y-78281026D01*
X86742987Y-78311885D01*
X86794482Y-78328219D01*
X86839507Y-78333728D01*
X86848218Y-78333857D01*
X86906325Y-78321246D01*
X86977677Y-78289675D01*
X87046271Y-78248542D01*
X87096100Y-78207242D01*
X87111748Y-78179149D01*
X87131503Y-78155419D01*
X87139106Y-78154442D01*
X87156499Y-78171914D01*
X87142739Y-78220242D01*
X87102165Y-78293298D01*
X87039116Y-78384954D01*
X86957931Y-78489079D01*
X86862950Y-78599545D01*
X86758513Y-78710223D01*
X86715453Y-78752803D01*
X86487691Y-78952995D01*
X86241444Y-79133070D01*
X85988043Y-79285937D01*
X85738821Y-79404504D01*
X85586723Y-79459118D01*
X85485502Y-79490319D01*
X85393228Y-79518860D01*
X85330416Y-79538394D01*
X85184774Y-79574641D01*
X85011949Y-79602852D01*
X84824012Y-79622478D01*
X84633038Y-79632969D01*
X84451098Y-79633777D01*
X84290266Y-79624351D01*
X84162615Y-79604143D01*
X84124566Y-79593267D01*
X83993949Y-79538067D01*
X83855610Y-79461838D01*
X83721055Y-79372747D01*
X83601785Y-79278962D01*
X83509305Y-79188651D01*
X83461143Y-79122201D01*
X83428741Y-79026756D01*
X83441207Y-78935406D01*
X83500193Y-78838230D01*
X83510630Y-78825523D01*
X83554826Y-78760326D01*
X83573490Y-78705793D01*
X83564323Y-78673158D01*
X83542676Y-78668969D01*
X83487435Y-78669297D01*
X83438852Y-78648108D01*
X83380894Y-78597037D01*
X83356798Y-78572009D01*
X83297429Y-78504290D01*
X83272357Y-78456293D01*
X83277818Y-78413399D01*
X83304498Y-78368828D01*
X83337119Y-78336676D01*
X83390181Y-78309124D01*
X83470009Y-78284558D01*
X83582927Y-78261366D01*
X83735257Y-78237936D01*
X83902062Y-78216431D01*
X84058123Y-78198973D01*
X84177137Y-78190004D01*
X84272557Y-78189213D01*
X84357835Y-78196287D01*
X84412051Y-78204578D01*
X84578847Y-78242987D01*
X84704995Y-78297158D01*
X84800505Y-78375008D01*
X84875384Y-78484455D01*
X84933647Y-78617149D01*
X84980884Y-78724109D01*
X85024776Y-78781622D01*
X85066917Y-78791262D01*
X85092715Y-78774040D01*
X85104167Y-78732251D01*
X85102412Y-78648379D01*
X85088322Y-78529633D01*
X85062766Y-78383218D01*
X85026615Y-78216344D01*
X85024095Y-78205704D01*
X84977817Y-78007252D01*
X84944411Y-77854601D01*
X84923186Y-77744117D01*
X84913449Y-77672167D01*
X84914506Y-77635118D01*
X84915036Y-77633553D01*
X84933159Y-77618411D01*
X84978060Y-77611716D01*
X85057989Y-77613052D01*
G37*
G36*
X78542558Y-78880645D02*
G01*
X78545626Y-78911062D01*
X78542558Y-78914819D01*
X78527321Y-78911301D01*
X78525471Y-78897732D01*
X78534849Y-78876635D01*
X78542558Y-78880645D01*
G37*
G36*
X78568770Y-78724725D02*
G01*
X78572756Y-78789730D01*
X78568770Y-78814432D01*
X78561341Y-78822409D01*
X78557296Y-78786968D01*
X78557048Y-78769578D01*
X78559721Y-78722948D01*
X78566374Y-78717453D01*
X78568770Y-78724725D01*
G37*
G36*
X81825779Y-73704886D02*
G01*
X81989681Y-73733121D01*
X82175690Y-73775950D01*
X82371598Y-73829911D01*
X82565194Y-73891543D01*
X82744269Y-73957385D01*
X82896613Y-74023976D01*
X82944733Y-74048636D01*
X83053125Y-74118649D01*
X83172590Y-74213802D01*
X83288384Y-74320703D01*
X83385767Y-74425963D01*
X83439055Y-74497666D01*
X83475638Y-74558971D01*
X83523480Y-74643695D01*
X83576757Y-74740926D01*
X83629649Y-74839754D01*
X83676330Y-74929268D01*
X83710979Y-74998554D01*
X83727772Y-75036704D01*
X83728499Y-75040039D01*
X83704343Y-75044588D01*
X83637771Y-75048449D01*
X83537628Y-75051324D01*
X83412757Y-75052913D01*
X83342690Y-75053130D01*
X83090819Y-75059058D01*
X82880652Y-75077746D01*
X82703917Y-75110549D01*
X82552342Y-75158826D01*
X82468781Y-75196411D01*
X82365871Y-75261679D01*
X82282805Y-75339837D01*
X82224098Y-75422595D01*
X82194264Y-75501664D01*
X82197816Y-75568756D01*
X82239269Y-75615581D01*
X82240234Y-75616104D01*
X82287425Y-75630913D01*
X82363657Y-75638674D01*
X82473552Y-75639320D01*
X82621734Y-75632780D01*
X82812826Y-75618987D01*
X82972394Y-75605178D01*
X83232965Y-75589029D01*
X83487731Y-75587378D01*
X83725232Y-75599690D01*
X83934008Y-75625430D01*
X84077668Y-75656722D01*
X84150605Y-75684714D01*
X84218394Y-75729671D01*
X84287040Y-75798089D01*
X84362550Y-75896464D01*
X84450927Y-76031291D01*
X84503700Y-76117528D01*
X84588055Y-76286145D01*
X84663433Y-76491372D01*
X84726215Y-76718837D01*
X84772779Y-76954169D01*
X84799507Y-77182998D01*
X84804517Y-77311680D01*
X84810706Y-77412713D01*
X84826896Y-77547096D01*
X84850461Y-77698495D01*
X84878776Y-77850580D01*
X84909215Y-77987018D01*
X84919404Y-78026289D01*
X84971157Y-78224462D01*
X85006761Y-78379391D01*
X85027249Y-78496130D01*
X85033650Y-78579732D01*
X85033570Y-78585826D01*
X85031613Y-78632533D01*
X85025336Y-78648168D01*
X85010071Y-78628370D01*
X84981151Y-78568779D01*
X84955775Y-78513148D01*
X84879783Y-78383457D01*
X84780312Y-78281704D01*
X84654097Y-78207174D01*
X84497874Y-78159153D01*
X84308380Y-78136925D01*
X84082352Y-78139776D01*
X83816525Y-78166991D01*
X83561899Y-78207829D01*
X83346768Y-78248548D01*
X83178046Y-78284350D01*
X83057358Y-78314870D01*
X82998024Y-78334607D01*
X82900642Y-78374327D01*
X82827397Y-78404636D01*
X82754882Y-78435279D01*
X82703271Y-78457330D01*
X82471133Y-78552332D01*
X82272665Y-78623501D01*
X82098009Y-78674082D01*
X81950217Y-78705165D01*
X81849966Y-78720419D01*
X81751740Y-78730677D01*
X81645214Y-78736197D01*
X81520065Y-78737239D01*
X81365971Y-78734063D01*
X81172607Y-78726929D01*
X81139800Y-78725543D01*
X80881244Y-78709566D01*
X80622538Y-78684498D01*
X80375938Y-78651997D01*
X80153703Y-78613722D01*
X79968091Y-78571330D01*
X79937883Y-78562920D01*
X79752772Y-78506096D01*
X79591957Y-78447810D01*
X79439058Y-78380885D01*
X79277697Y-78298146D01*
X79091497Y-78192417D01*
X79089346Y-78191156D01*
X78962428Y-78117697D01*
X78830407Y-78042896D01*
X78711144Y-77976795D01*
X78640809Y-77938969D01*
X78494492Y-77856669D01*
X78385988Y-77780716D01*
X78304511Y-77701148D01*
X78239278Y-77608007D01*
X78197662Y-77529724D01*
X78136235Y-77417527D01*
X78059234Y-77295494D01*
X77993291Y-77203337D01*
X77892897Y-77072664D01*
X77819516Y-76972832D01*
X77767513Y-76895162D01*
X77731253Y-76830976D01*
X77705102Y-76771594D01*
X77695119Y-76744096D01*
X77657041Y-76633574D01*
X77799767Y-76490527D01*
X77945069Y-76328284D01*
X78072975Y-76147565D01*
X78190261Y-75937542D01*
X78303705Y-75687390D01*
X78305950Y-75681980D01*
X78339072Y-75614182D01*
X78370864Y-75567846D01*
X78379089Y-75560627D01*
X78416356Y-75552461D01*
X78492732Y-75545864D01*
X78596072Y-75541637D01*
X78683832Y-75540506D01*
X78841955Y-75535042D01*
X78952473Y-75517529D01*
X79018137Y-75485500D01*
X79023670Y-75473991D01*
X79291772Y-75473991D01*
X79331599Y-75493910D01*
X79416113Y-75517289D01*
X79452081Y-75525553D01*
X79569267Y-75554496D01*
X79697876Y-75592149D01*
X79842182Y-75640193D01*
X80006460Y-75700307D01*
X80194983Y-75774173D01*
X80412028Y-75863472D01*
X80661867Y-75969883D01*
X80948777Y-76095087D01*
X81277031Y-76240766D01*
X81319215Y-76259618D01*
X81511170Y-76348178D01*
X81739247Y-76457916D01*
X81995107Y-76584497D01*
X82270409Y-76723585D01*
X82556816Y-76870846D01*
X82845987Y-77021943D01*
X83129584Y-77172540D01*
X83399267Y-77318304D01*
X83646697Y-77454898D01*
X83863535Y-77577986D01*
X83933544Y-77618769D01*
X84033195Y-77675765D01*
X84096004Y-77707007D01*
X84128155Y-77714607D01*
X84135833Y-77700675D01*
X84132552Y-77686682D01*
X84107632Y-77658370D01*
X84050395Y-77611202D01*
X83971717Y-77553927D01*
X83944594Y-77535436D01*
X83880923Y-77494019D01*
X83788899Y-77435889D01*
X83675877Y-77365522D01*
X83549211Y-77287394D01*
X83416255Y-77205981D01*
X83284364Y-77125762D01*
X83160891Y-77051211D01*
X83053193Y-76986805D01*
X82968621Y-76937021D01*
X82914532Y-76906336D01*
X82898253Y-76898539D01*
X82874065Y-76886550D01*
X82815265Y-76854185D01*
X82731548Y-76806844D01*
X82662096Y-76766984D01*
X82392634Y-76614468D01*
X82110383Y-76460180D01*
X81823482Y-76308235D01*
X81540074Y-76162750D01*
X81268298Y-76027839D01*
X81155627Y-75974088D01*
X82754537Y-75974088D01*
X82783402Y-76038134D01*
X82817270Y-76067021D01*
X82839868Y-76080469D01*
X82866995Y-76092263D01*
X82904576Y-76103430D01*
X82958536Y-76114995D01*
X83034800Y-76127984D01*
X83139294Y-76143425D01*
X83277943Y-76162342D01*
X83456670Y-76185763D01*
X83637316Y-76209052D01*
X83785608Y-76228795D01*
X83920162Y-76247992D01*
X84030988Y-76265120D01*
X84108099Y-76278654D01*
X84137114Y-76285312D01*
X84202195Y-76296625D01*
X84290707Y-76301501D01*
X84330819Y-76300999D01*
X84406977Y-76296174D01*
X84445937Y-76283256D01*
X84461758Y-76253448D01*
X84466779Y-76215937D01*
X84464074Y-76158500D01*
X84436163Y-76109867D01*
X84379214Y-76057043D01*
X84202466Y-75937497D01*
X83997203Y-75841940D01*
X83813146Y-75786396D01*
X83689866Y-75765797D01*
X83543444Y-75752079D01*
X83386554Y-75745276D01*
X83231868Y-75745425D01*
X83092061Y-75752561D01*
X82979806Y-75766720D01*
X82916528Y-75783877D01*
X82824056Y-75838527D01*
X82769073Y-75904742D01*
X82754537Y-75974088D01*
X81155627Y-75974088D01*
X81016296Y-75907619D01*
X80792209Y-75806206D01*
X80614371Y-75731733D01*
X80410205Y-75655841D01*
X80204905Y-75588571D01*
X80004975Y-75531281D01*
X79816920Y-75485331D01*
X79647245Y-75452080D01*
X79502455Y-75432886D01*
X79389055Y-75429108D01*
X79313550Y-75442106D01*
X79291899Y-75455461D01*
X79291772Y-75473991D01*
X79023670Y-75473991D01*
X79041702Y-75436484D01*
X79025920Y-75368014D01*
X78974848Y-75279537D01*
X78874346Y-75106581D01*
X78800829Y-74927572D01*
X78757515Y-74753761D01*
X78747622Y-74596398D01*
X78757706Y-74520429D01*
X78787894Y-74428354D01*
X78838267Y-74349678D01*
X78916416Y-74277047D01*
X79029933Y-74203105D01*
X79153423Y-74136996D01*
X79289915Y-74070876D01*
X79408980Y-74021636D01*
X79523908Y-73986008D01*
X79647985Y-73960722D01*
X79794500Y-73942511D01*
X79976741Y-73928107D01*
X80012051Y-73925813D01*
X80161372Y-73915333D01*
X80298322Y-73903143D01*
X80433094Y-73887803D01*
X80575881Y-73867875D01*
X80736876Y-73841919D01*
X80926272Y-73808496D01*
X81154262Y-73766166D01*
X81188612Y-73759680D01*
X81332539Y-73734831D01*
X81474929Y-73714370D01*
X81599927Y-73700326D01*
X81691678Y-73694728D01*
X81696195Y-73694705D01*
X81825779Y-73704886D01*
G37*
G36*
X78593226Y-78567022D02*
G01*
X78594494Y-78571429D01*
X78598247Y-78627260D01*
X78593545Y-78648321D01*
X78585131Y-78649173D01*
X78581694Y-78609049D01*
X78581729Y-78602979D01*
X78585425Y-78563227D01*
X78593226Y-78567022D01*
G37*
G36*
X75099821Y-72158477D02*
G01*
X75297372Y-72190860D01*
X75352596Y-72206361D01*
X75550035Y-72289095D01*
X75709727Y-72401627D01*
X75833275Y-72546365D01*
X75922283Y-72725716D01*
X75978355Y-72942087D01*
X76002482Y-73181788D01*
X76006834Y-73304416D01*
X76006780Y-73386636D01*
X76000854Y-73439215D01*
X75987595Y-73472921D01*
X75965538Y-73498522D01*
X75958578Y-73504829D01*
X75889469Y-73581396D01*
X75806867Y-73697890D01*
X75715153Y-73846195D01*
X75618706Y-74018194D01*
X75521904Y-74205768D01*
X75429127Y-74400801D01*
X75344754Y-74595176D01*
X75279067Y-74764374D01*
X75179816Y-75046526D01*
X75075788Y-75357662D01*
X74970011Y-75687667D01*
X74865513Y-76026424D01*
X74765320Y-76363818D01*
X74672460Y-76689733D01*
X74589960Y-76994054D01*
X74520848Y-77266663D01*
X74487003Y-77411078D01*
X74464646Y-77507535D01*
X74445263Y-77586180D01*
X74432558Y-77632067D01*
X74431402Y-77635346D01*
X74439477Y-77663862D01*
X74453859Y-77667264D01*
X74477524Y-77642714D01*
X74510201Y-77571795D01*
X74550300Y-77458290D01*
X74574990Y-77378919D01*
X74613710Y-77249731D01*
X74651219Y-77124623D01*
X74682658Y-77019797D01*
X74699817Y-76962616D01*
X74777095Y-76714308D01*
X74868311Y-76436471D01*
X74970386Y-76137443D01*
X75080246Y-75825564D01*
X75194813Y-75509172D01*
X75311010Y-75196609D01*
X75425762Y-74896212D01*
X75535991Y-74616320D01*
X75638622Y-74365274D01*
X75730577Y-74151412D01*
X75765087Y-74075092D01*
X75796908Y-74005621D01*
X76415212Y-74005621D01*
X76421730Y-74057547D01*
X76447138Y-74104906D01*
X76500214Y-74160500D01*
X76552995Y-74206514D01*
X76647803Y-74289722D01*
X76748552Y-74383144D01*
X76811257Y-74444402D01*
X76903397Y-74525796D01*
X76974980Y-74561755D01*
X77028283Y-74552739D01*
X77065584Y-74499207D01*
X77066858Y-74495930D01*
X77081215Y-74391888D01*
X77057659Y-74270410D01*
X77000619Y-74142956D01*
X76914524Y-74020982D01*
X76861790Y-73965464D01*
X76802520Y-73918648D01*
X76737086Y-73893381D01*
X76643856Y-73881602D01*
X76635235Y-73881043D01*
X76526844Y-73880094D01*
X76459652Y-73896812D01*
X76425249Y-73935960D01*
X76415225Y-74002300D01*
X76415212Y-74005621D01*
X75796908Y-74005621D01*
X75806961Y-73983673D01*
X75840654Y-73909153D01*
X75860230Y-73864687D01*
X75862231Y-73859788D01*
X75892565Y-73796715D01*
X75939161Y-73716533D01*
X75993625Y-73631789D01*
X76047564Y-73555028D01*
X76092583Y-73498797D01*
X76119028Y-73475942D01*
X76153448Y-73449782D01*
X76207100Y-73392187D01*
X76270194Y-73313978D01*
X76291575Y-73285273D01*
X76401100Y-73152481D01*
X76523817Y-73032340D01*
X76648865Y-72933874D01*
X76765383Y-72866104D01*
X76821031Y-72845421D01*
X76900623Y-72833003D01*
X77016716Y-72827303D01*
X77154917Y-72828910D01*
X77187985Y-72830359D01*
X77368796Y-72848086D01*
X77525587Y-72884829D01*
X77663565Y-72945042D01*
X77787933Y-73033175D01*
X77903899Y-73153682D01*
X78016667Y-73311014D01*
X78131443Y-73509624D01*
X78243534Y-73733152D01*
X78366320Y-74024996D01*
X78445807Y-74294816D01*
X78481710Y-74541310D01*
X78473745Y-74763178D01*
X78471655Y-74777015D01*
X78420060Y-75049271D01*
X78353504Y-75317581D01*
X78275354Y-75571631D01*
X78188975Y-75801108D01*
X78097734Y-75995700D01*
X78043198Y-76089635D01*
X77977603Y-76188880D01*
X77912774Y-76277347D01*
X77844434Y-76357731D01*
X77768305Y-76432723D01*
X77680109Y-76505016D01*
X77575569Y-76577305D01*
X77450406Y-76652282D01*
X77300345Y-76732639D01*
X77121106Y-76821070D01*
X76908413Y-76920268D01*
X76657987Y-77032925D01*
X76365551Y-77161735D01*
X76282787Y-77197908D01*
X76193383Y-77238286D01*
X76069663Y-77296041D01*
X75923189Y-77365680D01*
X75765520Y-77441708D01*
X75616390Y-77514606D01*
X75396640Y-77626389D01*
X75217708Y-77727102D01*
X75072235Y-77823195D01*
X74952864Y-77921116D01*
X74852237Y-78027315D01*
X74762996Y-78148240D01*
X74677785Y-78290342D01*
X74630566Y-78378711D01*
X74586608Y-78457908D01*
X74549289Y-78515173D01*
X74526281Y-78538809D01*
X74525476Y-78538902D01*
X74506228Y-78516545D01*
X74483499Y-78460184D01*
X74474649Y-78429972D01*
X74442251Y-78331091D01*
X74396577Y-78237411D01*
X74333343Y-78144676D01*
X74248263Y-78048631D01*
X74137054Y-77945020D01*
X73995431Y-77829587D01*
X73819108Y-77698078D01*
X73603801Y-77546237D01*
X73541854Y-77503553D01*
X73303239Y-77326766D01*
X73108072Y-77151710D01*
X72949452Y-76970479D01*
X72820480Y-76775165D01*
X72714256Y-76557860D01*
X72712019Y-76552525D01*
X72661532Y-76428581D01*
X72649084Y-76392448D01*
X72991201Y-76392448D01*
X73005532Y-76491889D01*
X73015778Y-76515764D01*
X73062331Y-76557002D01*
X73126890Y-76559982D01*
X73194066Y-76525336D01*
X73212455Y-76507671D01*
X73261634Y-76443065D01*
X73306919Y-76367444D01*
X73307652Y-76366000D01*
X73340851Y-76316751D01*
X73402110Y-76240573D01*
X73483400Y-76146945D01*
X73576692Y-76045343D01*
X73600778Y-76019986D01*
X73695427Y-75919774D01*
X73780268Y-75827588D01*
X73847368Y-75752219D01*
X73888792Y-75702456D01*
X73894509Y-75694602D01*
X73926254Y-75619576D01*
X73936391Y-75532993D01*
X73924739Y-75455045D01*
X73897064Y-75410241D01*
X73835753Y-75389908D01*
X73745774Y-75397972D01*
X73637681Y-75429819D01*
X73522024Y-75480837D01*
X73409356Y-75546414D01*
X73310227Y-75621936D01*
X73238686Y-75698054D01*
X73156585Y-75826733D01*
X73087802Y-75971459D01*
X73035320Y-76121285D01*
X73002126Y-76265264D01*
X72991201Y-76392448D01*
X72649084Y-76392448D01*
X72631163Y-76340427D01*
X72620139Y-76277039D01*
X72627688Y-76227394D01*
X72653038Y-76180470D01*
X72683169Y-76140557D01*
X72886816Y-75909287D01*
X73122748Y-75688732D01*
X73394813Y-75476105D01*
X73706860Y-75268617D01*
X74062736Y-75063482D01*
X74427545Y-74876682D01*
X74604938Y-74781082D01*
X74737171Y-74689527D01*
X74823167Y-74603323D01*
X74861846Y-74523775D01*
X74852129Y-74452189D01*
X74815431Y-74407061D01*
X74746690Y-74366118D01*
X74646786Y-74327983D01*
X74535711Y-74298793D01*
X74433454Y-74284683D01*
X74415225Y-74284210D01*
X74315454Y-74294341D01*
X74185442Y-74321750D01*
X74041363Y-74361960D01*
X73899391Y-74410493D01*
X73783796Y-74458998D01*
X73712774Y-74495005D01*
X73618660Y-74546009D01*
X73511241Y-74606309D01*
X73400303Y-74670203D01*
X73295630Y-74731992D01*
X73207009Y-74785973D01*
X73144225Y-74826447D01*
X73117399Y-74847227D01*
X73090505Y-74870221D01*
X73035119Y-74911050D01*
X72989245Y-74943027D01*
X72792221Y-75094602D01*
X72627035Y-75256757D01*
X72500915Y-75421840D01*
X72448993Y-75514910D01*
X72361522Y-75698066D01*
X72326186Y-75612682D01*
X72253672Y-75413914D01*
X72207996Y-75226489D01*
X72189960Y-75042697D01*
X72200364Y-74854828D01*
X72240006Y-74655173D01*
X72309689Y-74436022D01*
X72410210Y-74189666D01*
X72492349Y-74011540D01*
X72623850Y-73737013D01*
X72736481Y-73504655D01*
X72832866Y-73310095D01*
X72915626Y-73148962D01*
X72987384Y-73016887D01*
X73050762Y-72909499D01*
X73108382Y-72822427D01*
X73162866Y-72751302D01*
X73216836Y-72691753D01*
X73272915Y-72639410D01*
X73333725Y-72589902D01*
X73355153Y-72573536D01*
X73456236Y-72500495D01*
X73545962Y-72445394D01*
X73641710Y-72399324D01*
X73760858Y-72353374D01*
X73835058Y-72327517D01*
X74091401Y-72252260D01*
X74356112Y-72196924D01*
X74619127Y-72162312D01*
X74870385Y-72149229D01*
X75099821Y-72158477D01*
G37*
%TD*%
D11*
%TO.C,mouse-bite-2mm-slot*%
X129286000Y-49276000D03*
X129286000Y-50292000D03*
X129286000Y-51308000D03*
X129286000Y-52324000D03*
X129286000Y-53340000D03*
X131318000Y-49276000D03*
X131318000Y-50292000D03*
X131318000Y-51308000D03*
X131318000Y-52324000D03*
X131318000Y-53340000D03*
%TD*%
%TO.C,*%
X129286000Y-50292000D03*
%TD*%
%TO.C,*%
X129286000Y-52324000D03*
%TD*%
%TO.C,*%
X129286000Y-51308000D03*
%TD*%
%TO.C,*%
X129286000Y-53340000D03*
%TD*%
D12*
%TO.C,SW16*%
X170856000Y-68316000D03*
X175856000Y-70416000D03*
D13*
X181356000Y-64516000D03*
D14*
X181076000Y-60316000D03*
D15*
X175856000Y-64516000D03*
D14*
X170636000Y-60316000D03*
D13*
X170356000Y-64516000D03*
%TD*%
D12*
%TO.C,SW20*%
X228616127Y-97291103D03*
X225336000Y-92972450D03*
D13*
X217622860Y-95332000D03*
D14*
X215765347Y-99109307D03*
D15*
X222386000Y-98082000D03*
D14*
X224806653Y-104329307D03*
D13*
X227149140Y-100832000D03*
%TD*%
D12*
%TO.C,SW15*%
X152856000Y-75174000D03*
X157856000Y-77274000D03*
D13*
X163356000Y-71374000D03*
D14*
X163076000Y-67174000D03*
D15*
X157856000Y-71374000D03*
D14*
X152636000Y-67174000D03*
D13*
X152356000Y-71374000D03*
%TD*%
D12*
%TO.C,SW21*%
X209639142Y-87705577D03*
X205353032Y-84383038D03*
D13*
X198513408Y-88658495D03*
D14*
X197696827Y-92787853D03*
D15*
X203826000Y-90082000D03*
D14*
X207781093Y-95489924D03*
D13*
X209138592Y-91505505D03*
%TD*%
D12*
%TO.C,SW17*%
X188856000Y-73650000D03*
X193856000Y-75750000D03*
D13*
X199356000Y-69850000D03*
D14*
X199076000Y-65650000D03*
D15*
X193856000Y-69850000D03*
D14*
X188636000Y-65650000D03*
D13*
X188356000Y-69850000D03*
%TD*%
D12*
%TO.C,SW18*%
X206836000Y-76190000D03*
X211836000Y-78290000D03*
D13*
X217336000Y-72390000D03*
D14*
X217056000Y-68190000D03*
D15*
X211836000Y-72390000D03*
D14*
X206616000Y-68190000D03*
D13*
X206336000Y-72390000D03*
%TD*%
D12*
%TO.C,SW4*%
X170856000Y-34182000D03*
X175856000Y-36282000D03*
D13*
X181356000Y-30382000D03*
D14*
X181076000Y-26182000D03*
D15*
X175856000Y-30382000D03*
D14*
X170636000Y-26182000D03*
D13*
X170356000Y-30382000D03*
%TD*%
D12*
%TO.C,SW3*%
X152856000Y-41182000D03*
X157856000Y-43282000D03*
D13*
X163356000Y-37382000D03*
D14*
X163076000Y-33182000D03*
D15*
X157856000Y-37382000D03*
D14*
X152636000Y-33182000D03*
D13*
X152356000Y-37382000D03*
%TD*%
D12*
%TO.C,SW9*%
X152856000Y-58156000D03*
X157856000Y-60256000D03*
D13*
X163356000Y-54356000D03*
D14*
X163076000Y-50156000D03*
D15*
X157856000Y-54356000D03*
D14*
X152636000Y-50156000D03*
D13*
X152356000Y-54356000D03*
%TD*%
D12*
%TO.C,SW14*%
X134856000Y-87182000D03*
X139856000Y-89282000D03*
D13*
X145356000Y-83382000D03*
D14*
X145076000Y-79182000D03*
D15*
X139856000Y-83382000D03*
D14*
X134636000Y-79182000D03*
D13*
X134356000Y-83382000D03*
%TD*%
D12*
%TO.C,SW12*%
X206836000Y-59172000D03*
X211836000Y-61272000D03*
D13*
X217336000Y-55372000D03*
D14*
X217056000Y-51172000D03*
D15*
X211836000Y-55372000D03*
D14*
X206616000Y-51172000D03*
D13*
X206336000Y-55372000D03*
%TD*%
D12*
%TO.C,SW11*%
X188856000Y-56632000D03*
X193856000Y-58732000D03*
D13*
X199356000Y-52832000D03*
D14*
X199076000Y-48632000D03*
D15*
X193856000Y-52832000D03*
D14*
X188636000Y-48632000D03*
D13*
X188356000Y-52832000D03*
%TD*%
D12*
%TO.C,SW8*%
X134856000Y-70182000D03*
X139856000Y-72282000D03*
D13*
X145356000Y-66382000D03*
D14*
X145076000Y-62182000D03*
D15*
X139856000Y-66382000D03*
D14*
X134636000Y-62182000D03*
D13*
X134356000Y-66382000D03*
%TD*%
D12*
%TO.C,SW6*%
X206856000Y-42182000D03*
X211856000Y-44282000D03*
D13*
X217356000Y-38382000D03*
D14*
X217076000Y-34182000D03*
D15*
X211856000Y-38382000D03*
D14*
X206636000Y-34182000D03*
D13*
X206356000Y-38382000D03*
%TD*%
D12*
%TO.C,SW5*%
X188856000Y-39682000D03*
X193856000Y-41782000D03*
D13*
X199356000Y-35882000D03*
D14*
X199076000Y-31682000D03*
D15*
X193856000Y-35882000D03*
D14*
X188636000Y-31682000D03*
D13*
X188356000Y-35882000D03*
%TD*%
D12*
%TO.C,SW2*%
X134856000Y-53182000D03*
X139856000Y-55282000D03*
D13*
X145356000Y-49382000D03*
D14*
X145076000Y-45182000D03*
D15*
X139856000Y-49382000D03*
D14*
X134636000Y-45182000D03*
D13*
X134356000Y-49382000D03*
%TD*%
D11*
%TO.C,mouse-bite-2mm-slot*%
X129286000Y-73152000D03*
X129286000Y-74168000D03*
X129286000Y-75184000D03*
X129286000Y-76200000D03*
X129286000Y-77216000D03*
X131318000Y-73152000D03*
X131318000Y-74168000D03*
X131318000Y-75184000D03*
X131318000Y-76200000D03*
X131318000Y-77216000D03*
%TD*%
D16*
%TO.C,RSW1*%
X220140000Y-83058000D03*
X216740000Y-83058000D03*
%TD*%
D12*
%TO.C,SW10*%
X170856000Y-51298000D03*
X175856000Y-53398000D03*
D13*
X181356000Y-47498000D03*
D14*
X181076000Y-43298000D03*
D15*
X175856000Y-47498000D03*
D14*
X170636000Y-43298000D03*
D13*
X170356000Y-47498000D03*
%TD*%
D17*
%TO.C,REF\u002A\u002A*%
X204406000Y-46282000D03*
X185356000Y-65332000D03*
X185356000Y-27232000D03*
X166306000Y-46282000D03*
%TD*%
D18*
%TO.C,Bat+r1*%
X235966000Y-50800000D03*
%TD*%
%TO.C,BatGND1*%
X224282000Y-50800000D03*
%TD*%
D12*
%TO.C,SW17_r1*%
X43686000Y-76190000D03*
X48686000Y-78290000D03*
D13*
X54186000Y-72390000D03*
D14*
X53906000Y-68190000D03*
D15*
X48686000Y-72390000D03*
D14*
X43466000Y-68190000D03*
D13*
X43186000Y-72390000D03*
%TD*%
D12*
%TO.C,SW11_r1*%
X61700000Y-56632000D03*
X66700000Y-58732000D03*
D13*
X72200000Y-52832000D03*
D14*
X71920000Y-48632000D03*
D15*
X66700000Y-52832000D03*
D14*
X61480000Y-48632000D03*
D13*
X61200000Y-52832000D03*
%TD*%
D12*
%TO.C,SW15_r1*%
X79688000Y-68316000D03*
X84688000Y-70416000D03*
D13*
X90188000Y-64516000D03*
D14*
X89908000Y-60316000D03*
D15*
X84688000Y-64516000D03*
D14*
X79468000Y-60316000D03*
D13*
X79188000Y-64516000D03*
%TD*%
D12*
%TO.C,SW18_r1*%
X97714000Y-75174000D03*
X102714000Y-77274000D03*
D13*
X108214000Y-71374000D03*
D14*
X107934000Y-67174000D03*
D15*
X102714000Y-71374000D03*
D14*
X97494000Y-67174000D03*
D13*
X97214000Y-71374000D03*
%TD*%
D12*
%TO.C,SW6_r1*%
X43686000Y-42182000D03*
X48686000Y-44282000D03*
D13*
X54186000Y-38382000D03*
D14*
X53906000Y-34182000D03*
D15*
X48686000Y-38382000D03*
D14*
X43466000Y-34182000D03*
D13*
X43186000Y-38382000D03*
%TD*%
D12*
%TO.C,SW5_r1*%
X61700000Y-39682000D03*
X66700000Y-41782000D03*
D13*
X72200000Y-35882000D03*
D14*
X71920000Y-31682000D03*
D15*
X66700000Y-35882000D03*
D14*
X61480000Y-31682000D03*
D13*
X61200000Y-35882000D03*
%TD*%
D12*
%TO.C,SW2_r1*%
X115732000Y-53182000D03*
X120732000Y-55282000D03*
D13*
X126232000Y-49382000D03*
D14*
X125952000Y-45182000D03*
D15*
X120732000Y-49382000D03*
D14*
X115512000Y-45182000D03*
D13*
X115232000Y-49382000D03*
%TD*%
D12*
%TO.C,SW16_r1*%
X61700000Y-73650000D03*
X66700000Y-75750000D03*
D13*
X72200000Y-69850000D03*
D14*
X71920000Y-65650000D03*
D15*
X66700000Y-69850000D03*
D14*
X61480000Y-65650000D03*
D13*
X61200000Y-69850000D03*
%TD*%
D12*
%TO.C,SW4_r1*%
X79688000Y-34182000D03*
X84688000Y-36282000D03*
D13*
X90188000Y-30382000D03*
D14*
X89908000Y-26182000D03*
D15*
X84688000Y-30382000D03*
D14*
X79468000Y-26182000D03*
D13*
X79188000Y-30382000D03*
%TD*%
D12*
%TO.C,SW13_r1*%
X115732000Y-87182000D03*
X120732000Y-89282000D03*
D13*
X126232000Y-83382000D03*
D14*
X125952000Y-79182000D03*
D15*
X120732000Y-83382000D03*
D14*
X115512000Y-79182000D03*
D13*
X115232000Y-83382000D03*
%TD*%
D12*
%TO.C,SW12_r1*%
X43686000Y-59172000D03*
X48686000Y-61272000D03*
D13*
X54186000Y-55372000D03*
D14*
X53906000Y-51172000D03*
D15*
X48686000Y-55372000D03*
D14*
X43466000Y-51172000D03*
D13*
X43186000Y-55372000D03*
%TD*%
D12*
%TO.C,SW3_r1*%
X97714000Y-41182000D03*
X102714000Y-43282000D03*
D13*
X108214000Y-37382000D03*
D14*
X107934000Y-33182000D03*
D15*
X102714000Y-37382000D03*
D14*
X97494000Y-33182000D03*
D13*
X97214000Y-37382000D03*
%TD*%
D12*
%TO.C,SW8_r1*%
X97714000Y-58156000D03*
X102714000Y-60256000D03*
D13*
X108214000Y-54356000D03*
D14*
X107934000Y-50156000D03*
D15*
X102714000Y-54356000D03*
D14*
X97494000Y-50156000D03*
D13*
X97214000Y-54356000D03*
%TD*%
D12*
%TO.C,SW21_r1*%
X60624117Y-85117387D03*
X55250968Y-84383038D03*
D13*
X51465408Y-91505505D03*
D14*
X52822907Y-95489924D03*
D15*
X56778000Y-90082000D03*
D14*
X62907173Y-92787853D03*
D13*
X62090592Y-88658495D03*
%TD*%
D12*
%TO.C,SW9_r1*%
X79688000Y-51298000D03*
X84688000Y-53398000D03*
D13*
X90188000Y-47498000D03*
D14*
X89908000Y-43298000D03*
D15*
X84688000Y-47498000D03*
D14*
X79468000Y-43298000D03*
D13*
X79188000Y-47498000D03*
%TD*%
D12*
%TO.C,SW20_r1*%
X40648127Y-92291103D03*
X35268000Y-92972450D03*
D13*
X33454860Y-100832000D03*
D14*
X35797347Y-104329307D03*
D15*
X38218000Y-98082000D03*
D14*
X44838653Y-99109307D03*
D13*
X42981140Y-95332000D03*
%TD*%
D12*
%TO.C,SW7_r1*%
X115732000Y-70182000D03*
X120732000Y-72282000D03*
D13*
X126232000Y-66382000D03*
D14*
X125952000Y-62182000D03*
D15*
X120732000Y-66382000D03*
D14*
X115512000Y-62182000D03*
D13*
X115232000Y-66382000D03*
%TD*%
D17*
%TO.C,REF\u002A\u002A*%
X56642000Y-46282000D03*
X75692000Y-27232000D03*
X75692000Y-65332000D03*
X94742000Y-46282000D03*
%TD*%
D18*
%TO.C,BatGND4*%
X36068000Y-50800000D03*
%TD*%
%TO.C,Bat+1*%
X24638000Y-50800000D03*
%TD*%
D16*
%TO.C,RSW2*%
X43864000Y-82804000D03*
X40464000Y-82804000D03*
%TD*%
D19*
%TO.C,SW_POWERR1*%
X228624000Y-51816000D03*
X231624000Y-51816000D03*
%TD*%
%TO.C,SW_POWER1*%
X28980000Y-51816000D03*
X31980000Y-51816000D03*
%TD*%
M02*
